<svg width="50" height="50" viewBox="0 0 50 50" fill="none" xmlns="http://www.w3.org/2000/svg">
<g clip-path="url(#clip0_194_167)">
<rect width="50" height="50" rx="25" fill="url(#paint0_linear_194_167)"/>
<path fill-rule="evenodd" clip-rule="evenodd" d="M3.95366 21.7381L1.875 25.301L3.9673 28.3493C5.57849 38.5204 14.3815 46.2963 25 46.2963C35.6294 46.2963 44.4396 38.5044 46.0377 28.3179L48.0787 25.301L46.0535 21.7846C44.4986 11.548 35.665 3.70374 25 3.70374C14.3512 3.70374 5.52816 11.5242 3.95366 21.7381ZM4.89378 21.7218C6.46623 12.0292 14.8697 4.62966 25 4.62966C35.121 4.62966 43.5185 12.0157 45.1019 21.6954L42.9861 25.301L45.0938 28.3538C43.49 38.0093 35.1039 45.3704 25 45.3704C14.8893 45.3704 6.49868 37.9994 4.90296 28.3343L6.96759 25.301L4.89378 21.7218Z" fill="url(#paint1_linear_194_167)"/>
<g filter="url(#filter0_d_194_167)">
<path d="M26.6787 -1.67398C25.8033 -1.08296 25.0173 -0.439407 24.339 0.176382C23.6666 -0.420295 22.8875 -1.03934 22.0187 -1.60064C20.6217 -2.5032 17.3447 -4.34659 13.1015 -3.74442C7.72453 -2.98137 5.12656 1.22834 4.50301 2.25707C3.47835 3.94755 2.79812 5.76579 2.35065 7.14578C1.68183 9.20844 1.18209 11.4103 0.843702 13.24C-0.686294 16.4475 -1.23259 20.161 -1.20254 23.4853C-1.16006 28.1842 0.0175753 33.5627 2.89576 38.9559L3.36292 39.8312L3.993 40.5977C9.21685 46.9527 16.6504 51.2276 25.2373 50.9606C33.7802 50.695 41.3437 46.0044 47.1139 38.7974L47.891 37.8268L48.4068 36.6954C52.5937 27.511 51.7105 18.5739 48.1244 12.6109C47.7998 10.7061 47.314 8.62444 46.6981 6.72568C46.2309 5.28523 45.508 3.37465 44.4008 1.62207C43.848 0.747143 42.9384 -0.511033 41.5571 -1.6401C40.1377 -2.80036 37.7156 -4.21294 34.4595 -4.21295C30.813 -4.21296 28.0427 -2.59475 26.6787 -1.67398Z" fill="url(#paint2_linear_194_167)"/>
<path d="M26.6787 -1.67398C25.8033 -1.08296 25.0173 -0.439407 24.339 0.176382C23.6666 -0.420295 22.8875 -1.03934 22.0187 -1.60064C20.6217 -2.5032 17.3447 -4.34659 13.1015 -3.74442C7.72453 -2.98137 5.12656 1.22834 4.50301 2.25707C3.47835 3.94755 2.79812 5.76579 2.35065 7.14578C1.68183 9.20844 1.18209 11.4103 0.843702 13.24C-0.686294 16.4475 -1.23259 20.161 -1.20254 23.4853C-1.16006 28.1842 0.0175753 33.5627 2.89576 38.9559L3.36292 39.8312L3.993 40.5977C9.21685 46.9527 16.6504 51.2276 25.2373 50.9606C33.7802 50.695 41.3437 46.0044 47.1139 38.7974L47.891 37.8268L48.4068 36.6954C52.5937 27.511 51.7105 18.5739 48.1244 12.6109C47.7998 10.7061 47.314 8.62444 46.6981 6.72568C46.2309 5.28523 45.508 3.37465 44.4008 1.62207C43.848 0.747143 42.9384 -0.511033 41.5571 -1.6401C40.1377 -2.80036 37.7156 -4.21294 34.4595 -4.21295C30.813 -4.21296 28.0427 -2.59475 26.6787 -1.67398Z" stroke="black" stroke-width="20" style="mix-blend-mode:color-dodge"/>
<path d="M40.3129 29.9412C37.9528 27.6808 33.9183 24.6172 29.3874 24.6172C29.3874 24.6172 29.1132 20.7104 25.6979 19.6913C25.6979 19.6913 24.5014 20.2494 23.1053 21.2443C23.1053 21.2443 20.787 22.6032 19.5405 21.9965C18.2941 21.3899 16.7236 20.9046 16.7236 20.9046C15.0533 22.1906 14.9536 24.1319 14.9536 24.1319C14.9536 24.1319 12.0602 24.2332 9.25977 27.5649C9.70005 29.6678 10.4813 31.9304 11.718 34.2477C19.1112 43.2417 30.3508 43.7345 39.3076 32.5474C39.7146 31.6547 40.0468 30.785 40.3129 29.9412Z" fill="white"/>
<path d="M18.5416 17.0923C18.5416 17.0923 16.9465 16.9039 17.3921 15.6629C17.8377 14.4218 19.0981 14.4955 19.4328 14.6102C19.7674 14.7248 21.0462 15.4901 20.5911 16.5177C20.1361 17.5453 19.8313 17.2773 19.6245 17.2921C19.4176 17.3069 18.5416 17.0923 18.5416 17.0923Z" fill="white"/>
<path d="M28.9317 16.9311C28.9317 16.9311 30.6523 16.4035 29.9659 15.2669C29.2795 14.1302 27.9079 14.4726 27.5589 14.6578C27.2099 14.8431 25.9281 15.8757 26.591 16.7985C27.2538 17.7212 27.5456 17.3902 27.775 17.3607C28.0043 17.3312 28.9317 16.9311 28.9317 16.9311Z" fill="white"/>
<path d="M37.186 15.02C37.186 15.02 34.8313 12.8041 32.4766 11.9424C32.9723 9.6772 34.253 7.83881 34.8313 7.20276C36.8762 10.2189 37.186 15.02 37.186 15.02Z" fill="#FF8300"/>
<path d="M16.1254 12.1886C16.1254 12.1886 14.3206 12.681 11.718 15.2662C12.2137 11.1791 13.6596 8.39279 14.3206 7.51053C15.7536 8.98779 16.1254 12.1886 16.1254 12.1886Z" fill="#FF8300"/>
<path d="M17.6668 21.2369C19.8975 20.0674 23.1198 21.2369 23.1198 21.2369C23.1198 21.2369 23.4296 23.6991 20.5792 24.6224C20.3313 25.7919 20.7031 26.6536 20.7031 26.6536C25.7382 28.8152 28.6967 28.0078 29.3783 24.6224C29.3783 24.6224 30.3698 28.9311 25.5364 28.9311C22.8099 28.9311 20.889 27.9463 20.2074 27.5769C19.7116 28.1309 18.8932 28.891 17.233 28.6849C14.2586 28.3156 14.9403 24.13 14.9403 24.13C14.9403 24.13 15.6645 26.8913 16.7992 27.3923C18.4723 28.1309 19.7116 26.7768 19.7116 26.7768C19.7116 26.7768 19.5668 26.1811 19.5257 25.7919C19.4728 25.2899 19.5257 24.4993 19.5257 24.4993C19.5257 24.4993 17.233 23.5144 17.6668 21.2369Z" fill="black"/>
<path d="M26.342 19.3288C27.478 18.6312 30.1343 17.236 31.671 17.236C33.2078 17.236 32.7657 18.9184 32.3526 19.7596C31.2992 20.0264 28.6223 20.3136 26.342 19.3288Z" fill="black"/>
<path d="M15.0642 18.5901C15.2129 16.6204 19.1332 18.1387 21.0748 19.1441C18.9432 19.1441 17.0058 20.17 16.3035 20.6829C15.8284 20.5598 14.9154 19.9689 15.0642 18.5901Z" fill="black"/>
<path d="M24.1655 30.2579C22.8193 30.7111 21.4843 29.9424 21.3853 30.2579C21.111 31.1314 22.4953 32.7495 23.2681 33.0727C24.3151 32.1506 25.5393 29.7953 24.1655 30.2579Z" fill="black" fill-opacity="0.25"/>
</g>
</g>
<defs>
<filter id="filter0_d_194_167" x="-61.2037" y="-39.213" width="172.394" height="175.186" filterUnits="userSpaceOnUse" color-interpolation-filters="sRGB">
<feFlood flood-opacity="0" result="BackgroundImageFix"/>
<feColorMatrix in="SourceAlpha" type="matrix" values="0 0 0 0 0 0 0 0 0 0 0 0 0 0 0 0 0 0 127 0" result="hardAlpha"/>
<feOffset dy="25"/>
<feGaussianBlur stdDeviation="25"/>
<feComposite in2="hardAlpha" operator="out"/>
<feColorMatrix type="matrix" values="0 0 0 0 0 0 0 0 0 0 0 0 0 0 0 0 0 0 0.5 0"/>
<feBlend mode="overlay" in2="BackgroundImageFix" result="effect1_dropShadow_194_167"/>
<feBlend mode="normal" in="SourceGraphic" in2="effect1_dropShadow_194_167" result="shape"/>
</filter>
<linearGradient id="paint0_linear_194_167" x1="25" y1="0" x2="25" y2="50" gradientUnits="userSpaceOnUse">
<stop offset="0.390625" stop-color="#F00500"/>
<stop offset="1" stop-color="#FF7A00"/>
</linearGradient>
<linearGradient id="paint1_linear_194_167" x1="24.9769" y1="3.70374" x2="24.9769" y2="46.2963" gradientUnits="userSpaceOnUse">
<stop offset="0.0625" stop-color="white" stop-opacity="0"/>
<stop offset="0.432292" stop-color="white"/>
<stop offset="0.5625" stop-color="white"/>
<stop offset="0.9375" stop-color="white" stop-opacity="0"/>
</linearGradient>
<linearGradient id="paint2_linear_194_167" x1="25" y1="5.78705" x2="25" y2="40.9722" gradientUnits="userSpaceOnUse">
<stop offset="0.1875" stop-color="#FFC909"/>
<stop offset="0.515625" stop-color="#FFA409"/>
</linearGradient>
<clipPath id="clip0_194_167">
<rect width="50" height="50" rx="25" fill="white"/>
</clipPath>
</defs>
</svg>
