<svg width="159" height="17" viewBox="0 0 159 17" fill="none" xmlns="http://www.w3.org/2000/svg">
<path d="M8 0.59259C9.65625 0.59259 11 1.93634 11 3.59259V4.59259H5V3.59259C5 1.93634 6.34375 0.59259 8 0.59259ZM2.6875 3.90509L4.40625 5.59259H11.5625L13.2812 3.90509L14 3.18634L15.4062 4.59259L14.6875 5.31134L13 7.03009V8.59259H15H16V10.5926H15H13C13 11.3738 12.8125 12.0926 12.5312 12.7176L14.1875 14.4051L14.9062 15.0926L13.5 16.5301L12.7812 15.8113L11.3125 14.3426C10.5312 15.0301 9.5625 15.4676 8.5 15.5926V8.09259V7.59259H7.5V8.09259V15.5926C6.40625 15.4676 5.4375 15.0301 4.65625 14.3426L3.1875 15.8113L2.5 16.5301L1.0625 15.0926L1.78125 14.4051L3.46875 12.7176C3.15625 12.0926 3 11.3738 3 10.5926H1H0V8.59259H1H3V7.03009L1.28125 5.31134L0.5625 4.59259L2 3.18634L2.6875 3.90509ZM24.0708 14.5926V4.28859H26.6748V14.5926H24.0708ZM30.2308 14.5926L27.3608 10.2526H30.1888L33.2268 14.5926H30.2308ZM26.0168 11.4566V9.45459H28.4668C28.7748 9.45459 29.0408 9.39392 29.2648 9.27259C29.4888 9.15126 29.6615 8.97859 29.7828 8.75459C29.9135 8.53059 29.9788 8.26926 29.9788 7.97059C29.9788 7.66259 29.9135 7.39659 29.7828 7.17259C29.6615 6.94859 29.4888 6.77592 29.2648 6.65459C29.0408 6.53326 28.7748 6.47259 28.4668 6.47259H26.0168V4.28859H28.3128C29.1995 4.28859 29.9648 4.42392 30.6088 4.69459C31.2528 4.95592 31.7475 5.34792 32.0928 5.87059C32.4382 6.38392 32.6108 7.02326 32.6108 7.78859V8.01259C32.6108 8.77792 32.4335 9.41726 32.0788 9.93059C31.7335 10.4346 31.2388 10.8173 30.5948 11.0786C29.9602 11.3306 29.1995 11.4566 28.3128 11.4566H26.0168ZM34.8541 14.5926V4.37259H37.3741V14.5926H34.8541ZM37.0941 14.5926V12.4646H41.4061V14.5926H37.0941ZM37.0941 10.4626V8.33459H41.1121V10.4626H37.0941ZM37.0941 6.50059V4.37259H41.3221V6.50059H37.0941ZM45.8833 11.8766V9.63659H47.5633C47.8806 9.63659 48.1559 9.57592 48.3893 9.45459C48.6226 9.32392 48.8046 9.14192 48.9353 8.90859C49.0659 8.67526 49.1313 8.39992 49.1313 8.08259C49.1313 7.75592 49.0659 7.47592 48.9353 7.24259C48.8046 7.00926 48.6226 6.83192 48.3893 6.71059C48.1559 6.58926 47.8806 6.52859 47.5633 6.52859H45.8833V4.28859H47.4933C48.3706 4.28859 49.1266 4.43792 49.7613 4.73659C50.4053 5.02592 50.8999 5.44592 51.2453 5.99659C51.5906 6.54726 51.7633 7.20526 51.7633 7.97059V8.19459C51.7633 8.95059 51.5906 9.60392 51.2453 10.1546C50.8999 10.7053 50.4053 11.1299 49.7613 11.4286C49.1266 11.7273 48.3706 11.8766 47.4933 11.8766H45.8833ZM43.5593 14.5926V4.28859H46.1633V14.5926H43.5593ZM58.4522 14.8726C57.5189 14.8726 56.7069 14.7139 56.0162 14.3966C55.3256 14.0699 54.7516 13.6453 54.2942 13.1226C53.8369 12.5906 53.4962 12.0166 53.2722 11.4006C53.0482 10.7846 52.9362 10.1873 52.9362 9.60859V9.30059C52.9362 8.65659 53.0529 8.02659 53.2862 7.41059C53.5196 6.78526 53.8696 6.22059 54.3362 5.71659C54.8029 5.21259 55.3769 4.81126 56.0582 4.51259C56.7489 4.21392 57.5469 4.06459 58.4522 4.06459C59.3482 4.06459 60.1369 4.21392 60.8182 4.51259C61.5089 4.81126 62.0876 5.21259 62.5542 5.71659C63.0209 6.22059 63.3709 6.78526 63.6042 7.41059C63.8469 8.02659 63.9682 8.65659 63.9682 9.30059V9.60859C63.9682 10.1873 63.8516 10.7846 63.6182 11.4006C63.3942 12.0166 63.0536 12.5906 62.5962 13.1226C62.1389 13.6453 61.5649 14.0699 60.8742 14.3966C60.1836 14.7139 59.3762 14.8726 58.4522 14.8726ZM58.4522 12.4366C58.9002 12.4366 59.3016 12.3619 59.6562 12.2126C60.0109 12.0633 60.3142 11.8533 60.5662 11.5826C60.8182 11.3119 61.0096 10.9993 61.1402 10.6446C61.2709 10.2806 61.3362 9.88859 61.3362 9.46859C61.3362 9.02059 61.2662 8.61459 61.1262 8.25059C60.9956 7.88659 60.8042 7.57392 60.5522 7.31259C60.3002 7.05126 59.9969 6.85059 59.6422 6.71059C59.2876 6.57059 58.8909 6.50059 58.4522 6.50059C58.0042 6.50059 57.6029 6.57059 57.2482 6.71059C56.8936 6.85059 56.5902 7.05126 56.3382 7.31259C56.0862 7.57392 55.8949 7.88659 55.7642 8.25059C55.6336 8.61459 55.5682 9.02059 55.5682 9.46859C55.5682 9.88859 55.6336 10.2806 55.7642 10.6446C55.8949 10.9993 56.0862 11.3119 56.3382 11.5826C56.5902 11.8533 56.8936 12.0633 57.2482 12.2126C57.6029 12.3619 58.0042 12.4366 58.4522 12.4366ZM65.9598 14.5926V4.28859H68.5638V14.5926H65.9598ZM72.1198 14.5926L69.2498 10.2526H72.0778L75.1158 14.5926H72.1198ZM67.9058 11.4566V9.45459H70.3558C70.6638 9.45459 70.9298 9.39392 71.1538 9.27259C71.3778 9.15126 71.5505 8.97859 71.6718 8.75459C71.8025 8.53059 71.8678 8.26926 71.8678 7.97059C71.8678 7.66259 71.8025 7.39659 71.6718 7.17259C71.5505 6.94859 71.3778 6.77592 71.1538 6.65459C70.9298 6.53326 70.6638 6.47259 70.3558 6.47259H67.9058V4.28859H70.2018C71.0885 4.28859 71.8538 4.42392 72.4978 4.69459C73.1418 4.95592 73.6365 5.34792 73.9818 5.87059C74.3272 6.38392 74.4998 7.02326 74.4998 7.78859V8.01259C74.4998 8.77792 74.3225 9.41726 73.9678 9.93059C73.6225 10.4346 73.1278 10.8173 72.4838 11.0786C71.8492 11.3306 71.0885 11.4566 70.2018 11.4566H67.9058ZM78.4863 14.5926V6.36059H81.0903V14.5926H78.4863ZM75.6863 6.64059V4.37259H83.8903V6.64059H75.6863ZM87.9794 14.5926L91.2554 4.37259H95.4274L98.8154 14.5926H96.1274L93.4954 6.19259L94.2374 6.47259H92.3894L93.1454 6.19259L90.5834 14.5926H87.9794ZM90.6534 12.2266L91.4374 10.0986H95.3154L96.0994 12.2266H90.6534ZM100.384 14.5926V4.37259H104.654L108.056 12.5206H108.546L108.266 12.7726V4.37259H110.702V14.5926H106.404L103.002 6.44459H102.512L102.792 6.19259V14.5926H100.384ZM116.496 14.5926V4.37259H119.1V14.5926H116.496ZM125.259 14.8726C124.307 14.8726 123.504 14.7233 122.851 14.4246C122.207 14.1259 121.717 13.7199 121.381 13.2066C121.054 12.6839 120.891 12.0866 120.891 11.4146H123.411C123.411 11.6573 123.476 11.8813 123.607 12.0866C123.747 12.2826 123.952 12.4366 124.223 12.5486C124.493 12.6606 124.839 12.7166 125.259 12.7166C125.623 12.7166 125.931 12.6699 126.183 12.5766C126.444 12.4833 126.64 12.3526 126.771 12.1846C126.911 12.0166 126.981 11.8159 126.981 11.5826C126.981 11.2839 126.855 11.0553 126.603 10.8966C126.351 10.7286 125.926 10.6213 125.329 10.5746L124.671 10.5186C123.616 10.4253 122.776 10.0939 122.151 9.52459C121.525 8.95526 121.213 8.19926 121.213 7.25659C121.213 6.58459 121.367 6.01059 121.675 5.53459C121.992 5.05859 122.435 4.69459 123.005 4.44259C123.574 4.19059 124.246 4.06459 125.021 4.06459C125.861 4.06459 126.57 4.20459 127.149 4.48459C127.737 4.76459 128.185 5.16126 128.493 5.67459C128.801 6.17859 128.955 6.76659 128.955 7.43859H126.435C126.435 7.21459 126.379 7.00926 126.267 6.82259C126.155 6.63592 125.991 6.49126 125.777 6.38859C125.571 6.27659 125.319 6.22059 125.021 6.22059C124.741 6.22059 124.503 6.26726 124.307 6.36059C124.12 6.44459 123.975 6.56592 123.873 6.72459C123.779 6.88326 123.733 7.06059 123.733 7.25659C123.733 7.51792 123.821 7.74192 123.999 7.92859C124.176 8.11526 124.484 8.22726 124.923 8.26459L125.581 8.32059C126.346 8.38592 127.023 8.55392 127.611 8.82459C128.199 9.08592 128.661 9.44526 128.997 9.90259C129.333 10.3599 129.501 10.9199 129.501 11.5826C129.501 12.2453 129.328 12.8239 128.983 13.3186C128.647 13.8133 128.161 14.1959 127.527 14.4666C126.901 14.7373 126.145 14.8726 125.259 14.8726ZM134.907 14.8726C133.955 14.8726 133.152 14.7233 132.499 14.4246C131.855 14.1259 131.365 13.7199 131.029 13.2066C130.702 12.6839 130.539 12.0866 130.539 11.4146H133.059C133.059 11.6573 133.124 11.8813 133.255 12.0866C133.395 12.2826 133.6 12.4366 133.871 12.5486C134.142 12.6606 134.487 12.7166 134.907 12.7166C135.271 12.7166 135.579 12.6699 135.831 12.5766C136.092 12.4833 136.288 12.3526 136.419 12.1846C136.559 12.0166 136.629 11.8159 136.629 11.5826C136.629 11.2839 136.503 11.0553 136.251 10.8966C135.999 10.7286 135.574 10.6213 134.977 10.5746L134.319 10.5186C133.264 10.4253 132.424 10.0939 131.799 9.52459C131.174 8.95526 130.861 8.19926 130.861 7.25659C130.861 6.58459 131.015 6.01059 131.323 5.53459C131.64 5.05859 132.084 4.69459 132.653 4.44259C133.222 4.19059 133.894 4.06459 134.669 4.06459C135.509 4.06459 136.218 4.20459 136.797 4.48459C137.385 4.76459 137.833 5.16126 138.141 5.67459C138.449 6.17859 138.603 6.76659 138.603 7.43859H136.083C136.083 7.21459 136.027 7.00926 135.915 6.82259C135.803 6.63592 135.64 6.49126 135.425 6.38859C135.22 6.27659 134.968 6.22059 134.669 6.22059C134.389 6.22059 134.151 6.26726 133.955 6.36059C133.768 6.44459 133.624 6.56592 133.521 6.72459C133.428 6.88326 133.381 7.06059 133.381 7.25659C133.381 7.51792 133.47 7.74192 133.647 7.92859C133.824 8.11526 134.132 8.22726 134.571 8.26459L135.229 8.32059C135.994 8.38592 136.671 8.55392 137.259 8.82459C137.847 9.08592 138.309 9.44526 138.645 9.90259C138.981 10.3599 139.149 10.9199 139.149 11.5826C139.149 12.2453 138.976 12.8239 138.631 13.3186C138.295 13.8133 137.81 14.1959 137.175 14.4666C136.55 14.7373 135.794 14.8726 134.907 14.8726ZM145.284 14.8726C144.304 14.8726 143.473 14.6906 142.792 14.3266C142.12 13.9626 141.606 13.4493 141.252 12.7866C140.897 12.1146 140.72 11.3213 140.72 10.4066V4.37259H143.324V10.4626C143.324 10.8639 143.398 11.2139 143.548 11.5126C143.706 11.8113 143.93 12.0399 144.22 12.1986C144.509 12.3573 144.864 12.4366 145.284 12.4366C145.704 12.4366 146.058 12.3573 146.348 12.1986C146.637 12.0399 146.856 11.8159 147.006 11.5266C147.155 11.2279 147.23 10.8733 147.23 10.4626V4.37259H149.834V10.4066C149.834 11.3213 149.656 12.1146 149.302 12.7866C148.956 13.4493 148.443 13.9626 147.762 14.3266C147.09 14.6906 146.264 14.8726 145.284 14.8726ZM152.136 14.5926V4.37259H154.656V14.5926H152.136ZM154.376 14.5926V12.4646H158.688V14.5926H154.376ZM154.376 10.4626V8.33459H158.394V10.4626H154.376ZM154.376 6.50059V4.37259H158.604V6.50059H154.376Z" fill="white"/>
</svg>
