<svg width="178" height="21" viewBox="0 0 178 21" fill="none" xmlns="http://www.w3.org/2000/svg">
<path d="M17.4013 10.5822L18.1185 9.74021L17.8067 9.51152L18.3056 9.05414L17.921 8.76308L18.42 8.38886L18.0977 8.13938L18.6175 5.603L17.8275 3.25372M17.8275 3.25372L12.7547 5.13522H8.52392L3.45115 3.25372L2.66113 5.603L3.19128 8.13938L2.85864 8.38886L3.36799 8.76308L2.98338 9.05414L3.48234 9.51152L3.17049 9.74021L3.88774 10.5822L2.79627 13.9502L3.80458 17.3909L7.34928 16.4138L8.03535 16.9751L9.43868 17.9315H11.8399L13.2433 16.9751L13.9293 16.4138L17.4844 17.3909L18.5031 13.9502L17.4013 10.5822" fill="#F5841F"/>
<path d="M17.8277 3.25372L11.6011 7.83792L12.7549 5.13522L17.8277 3.25372Z" fill="#E27625"/>
<path d="M3.45117 3.25372L9.62581 7.8795L8.52394 5.13522L3.45117 3.25372Z" fill="#E27625"/>
<path d="M15.5924 13.8878L13.9292 16.4034L17.4843 17.3805L18.503 13.9398L15.5924 13.8878Z" fill="#E27625"/>
<path d="M2.79639 13.9398L3.8047 17.3805L7.3494 16.4034L5.69659 13.8878L2.79639 13.9398Z" fill="#E27625"/>
<path d="M7.16233 9.62589L6.1748 11.1124L9.68832 11.2683L9.57397 7.50531L7.16233 9.62589Z" fill="#E27625"/>
<path d="M14.1271 9.62585L11.6738 7.46368L11.6011 11.2683L15.1146 11.1123L14.1271 9.62585Z" fill="#E27625"/>
<path d="M7.34912 16.4034L9.4801 15.3847L7.64018 13.971L7.34912 16.4034Z" fill="#E27625"/>
<path d="M11.8086 15.3847L13.9292 16.4034L13.6381 13.971L11.8086 15.3847Z" fill="#E27625"/>
<path d="M13.9292 16.4034L11.8086 15.3847L11.9853 16.7568L11.9645 17.339L13.9292 16.4034Z" fill="#D7C1B3"/>
<path d="M7.34912 16.4034L9.32417 17.339L9.31378 16.7568L9.4801 15.3847L7.34912 16.4034Z" fill="#D7C1B3"/>
<path d="M9.35539 13.0562L7.59863 12.5469L8.84603 11.9752L9.35539 13.0562Z" fill="#2F343B"/>
<path d="M11.9229 13.0562L12.4426 11.9752L13.69 12.5469L11.9229 13.0562Z" fill="#2F343B"/>
<path d="M7.3491 16.4034L7.66095 13.8878L5.69629 13.9398L7.3491 16.4034Z" fill="#CC6228"/>
<path d="M13.6279 13.8878L13.9294 16.4034L15.5926 13.9398L13.6279 13.8878Z" fill="#CC6228"/>
<path d="M15.1146 11.1124L11.6011 11.2683L11.9233 13.0562L12.4431 11.9752L13.6905 12.5469L15.1146 11.1124Z" fill="#CC6228"/>
<path d="M7.59892 12.5469L8.84632 11.9752L9.35568 13.0562L9.68832 11.2683L6.1748 11.1124L7.59892 12.5469Z" fill="#CC6228"/>
<path d="M6.1748 11.1124L7.6405 13.971L7.59892 12.5469L6.1748 11.1124Z" fill="#E27625"/>
<path d="M13.6902 12.5469L13.6382 13.971L15.1143 11.1124L13.6902 12.5469Z" fill="#E27625"/>
<path d="M9.68811 11.2682L9.35547 13.0562L9.77127 15.1768L9.86482 12.3909L9.68811 11.2682Z" fill="#E27625"/>
<path d="M11.601 11.2682L11.4243 12.3805L11.5075 15.1768L11.9233 13.0562L11.601 11.2682Z" fill="#E27625"/>
<path d="M11.9231 13.0562L11.5073 15.1768L11.8088 15.3847L13.6383 13.971L13.6903 12.5469L11.9231 13.0562Z" fill="#F5841F"/>
<path d="M7.59863 12.5469L7.64021 13.971L9.48013 15.3847L9.77119 15.1768L9.35539 13.0562L7.59863 12.5469Z" fill="#F5841F"/>
<path d="M11.9645 17.339L11.9853 16.7569L11.819 16.6217H9.45931L9.31378 16.7569L9.32417 17.339L7.34912 16.4034L8.03519 16.9648L9.43852 17.9315H11.8398L13.2431 16.9648L13.9292 16.4034L11.9645 17.339Z" fill="#C0AD9E"/>
<path d="M11.8088 15.3847L11.5073 15.1768H9.77135L9.48028 15.3847L9.31396 16.7569L9.4595 16.6217H11.8192L11.9855 16.7569L11.8088 15.3847Z" fill="#2F343B"/>
<path d="M18.0976 8.13938L18.6173 5.603L17.8273 3.25372L11.8086 7.682L14.1267 9.62586L17.4011 10.5822L18.1184 9.74021L17.8065 9.51152L18.3055 9.06453L17.9209 8.76308L18.4198 8.38886L18.0976 8.13938Z" fill="#763E1A"/>
<path d="M2.66113 5.603L3.19128 8.13938L2.85864 8.38886L3.3576 8.77347L2.97298 9.06453L3.47194 9.51152L3.16009 9.74021L3.88774 10.5822L7.16217 9.62586L9.48026 7.682L3.45115 3.25372L2.66113 5.603Z" fill="#763E1A"/>
<path d="M17.4012 10.5822L14.1267 9.62585L15.1143 11.1123L13.6382 13.971L15.5924 13.9398H18.503L17.4012 10.5822Z" fill="#F5841F"/>
<path d="M7.16229 9.62585L3.88786 10.5822L2.79639 13.9398H5.69659L7.64046 13.971L6.17477 11.1123L7.16229 9.62585Z" fill="#F5841F"/>
<path d="M11.6008 11.2682L11.8087 7.68197L12.7547 5.13519H8.52393L9.48027 7.68197L9.68817 11.2682L9.77133 12.3909V15.1768H11.5073L11.5177 12.3909L11.6008 11.2682Z" fill="#F5841F"/>
<path d="M26.4011 15.5926L29.6771 5.37259H33.8491L37.2371 15.5926H34.5491L31.9171 7.19259L32.6591 7.47259H30.8111L31.5671 7.19259L29.0051 15.5926H26.4011ZM29.0751 13.2266L29.8591 11.0986H33.7371L34.5211 13.2266H29.0751ZM41.1296 15.6486V13.2126H42.8096C43.2483 13.2126 43.6403 13.1519 43.9856 13.0306C44.3403 12.8999 44.6389 12.7179 44.8816 12.4846C45.1243 12.2419 45.3109 11.9526 45.4416 11.6166C45.5723 11.2713 45.6376 10.8839 45.6376 10.4546C45.6376 10.0066 45.5723 9.61459 45.4416 9.27859C45.3109 8.93326 45.1243 8.64859 44.8816 8.42459C44.6389 8.19126 44.3403 8.01859 43.9856 7.90659C43.6403 7.78526 43.2483 7.72459 42.8096 7.72459H41.1296V5.28859H42.6976C43.6216 5.28859 44.4289 5.41926 45.1196 5.68059C45.8196 5.94192 46.4029 6.30592 46.8696 6.77259C47.3363 7.22992 47.6863 7.76192 47.9196 8.36859C48.1529 8.97526 48.2696 9.61926 48.2696 10.3006V10.6086C48.2696 11.2339 48.1529 11.8499 47.9196 12.4566C47.6863 13.0539 47.3363 13.5953 46.8696 14.0806C46.4029 14.5566 45.8196 14.9393 45.1196 15.2286C44.4289 15.5086 43.6216 15.6486 42.6976 15.6486H41.1296ZM38.8056 15.6486V5.28859H41.4096V15.6486H38.8056ZM52.4461 15.6486V13.2126H54.1261C54.5648 13.2126 54.9568 13.1519 55.3021 13.0306C55.6568 12.8999 55.9554 12.7179 56.1981 12.4846C56.4408 12.2419 56.6274 11.9526 56.7581 11.6166C56.8888 11.2713 56.9541 10.8839 56.9541 10.4546C56.9541 10.0066 56.8888 9.61459 56.7581 9.27859C56.6274 8.93326 56.4408 8.64859 56.1981 8.42459C55.9554 8.19126 55.6568 8.01859 55.3021 7.90659C54.9568 7.78526 54.5648 7.72459 54.1261 7.72459H52.4461V5.28859H54.0141C54.9381 5.28859 55.7454 5.41926 56.4361 5.68059C57.1361 5.94192 57.7194 6.30592 58.1861 6.77259C58.6528 7.22992 59.0028 7.76192 59.2361 8.36859C59.4694 8.97526 59.5861 9.61926 59.5861 10.3006V10.6086C59.5861 11.2339 59.4694 11.8499 59.2361 12.4566C59.0028 13.0539 58.6528 13.5953 58.1861 14.0806C57.7194 14.5566 57.1361 14.9393 56.4361 15.2286C55.7454 15.5086 54.9381 15.6486 54.0141 15.6486H52.4461ZM50.1221 15.6486V5.28859H52.7261V15.6486H50.1221ZM66.76 15.5926V7.36059H69.364V15.5926H66.76ZM63.96 7.64059V5.37259H72.164V7.64059H63.96ZM78.6246 15.8726C77.6912 15.8726 76.8792 15.7139 76.1886 15.3966C75.4979 15.0699 74.9239 14.6453 74.4666 14.1226C74.0092 13.5906 73.6686 13.0166 73.4446 12.4006C73.2206 11.7846 73.1086 11.1873 73.1086 10.6086V10.3006C73.1086 9.65659 73.2252 9.02659 73.4586 8.41059C73.6919 7.78526 74.0419 7.22059 74.5086 6.71659C74.9752 6.21259 75.5492 5.81126 76.2306 5.51259C76.9212 5.21392 77.7192 5.06459 78.6246 5.06459C79.5206 5.06459 80.3092 5.21392 80.9906 5.51259C81.6812 5.81126 82.2599 6.21259 82.7266 6.71659C83.1932 7.22059 83.5432 7.78526 83.7766 8.41059C84.0192 9.02659 84.1406 9.65659 84.1406 10.3006V10.6086C84.1406 11.1873 84.0239 11.7846 83.7906 12.4006C83.5666 13.0166 83.2259 13.5906 82.7686 14.1226C82.3112 14.6453 81.7372 15.0699 81.0466 15.3966C80.3559 15.7139 79.5486 15.8726 78.6246 15.8726ZM78.6246 13.4366C79.0726 13.4366 79.4739 13.3619 79.8286 13.2126C80.1832 13.0633 80.4866 12.8533 80.7386 12.5826C80.9906 12.3119 81.1819 11.9993 81.3126 11.6446C81.4432 11.2806 81.5086 10.8886 81.5086 10.4686C81.5086 10.0206 81.4386 9.61459 81.2986 9.25059C81.1679 8.88659 80.9766 8.57392 80.7246 8.31259C80.4726 8.05126 80.1692 7.85059 79.8146 7.71059C79.4599 7.57059 79.0632 7.50059 78.6246 7.50059C78.1766 7.50059 77.7752 7.57059 77.4206 7.71059C77.0659 7.85059 76.7626 8.05126 76.5106 8.31259C76.2586 8.57392 76.0672 8.88659 75.9366 9.25059C75.8059 9.61459 75.7406 10.0206 75.7406 10.4686C75.7406 10.8886 75.8059 11.2806 75.9366 11.6446C76.0672 11.9993 76.2586 12.3119 76.5106 12.5826C76.7626 12.8533 77.0659 13.0633 77.4206 13.2126C77.7752 13.3619 78.1766 13.4366 78.6246 13.4366ZM89.4096 15.5926V5.37259H93.0216L95.1216 10.7626H95.4016L97.4876 5.37259H101.17V15.5926H98.5936V6.87059L98.9996 6.89859L96.3676 13.5346H94.0016L91.3556 6.89859L91.7896 6.87059V15.5926H89.4096ZM103.666 15.5926V5.37259H106.186V15.5926H103.666ZM105.906 15.5926V13.4646H110.218V15.5926H105.906ZM105.906 11.4626V9.33459H109.924V11.4626H105.906ZM105.906 7.50059V5.37259H110.134V7.50059H105.906ZM114.415 15.5926V7.36059H117.019V15.5926H114.415ZM111.615 7.64059V5.37259H119.819V7.64059H111.615ZM119.687 15.5926L122.963 5.37259H127.135L130.523 15.5926H127.835L125.203 7.19259L125.945 7.47259H124.097L124.853 7.19259L122.291 15.5926H119.687ZM122.361 13.2266L123.145 11.0986H127.023L127.807 13.2266H122.361ZM132.092 15.5926V5.37259H135.704L137.804 10.7626H138.084L140.17 5.37259H143.852V15.5926H141.276V6.87059L141.682 6.89859L139.05 13.5346H136.684L134.038 6.89859L134.472 6.87059V15.5926H132.092ZM145.423 15.5926L148.699 5.37259H152.871L156.259 15.5926H153.571L150.939 7.19259L151.681 7.47259H149.833L150.589 7.19259L148.027 15.5926H145.423ZM148.097 13.2266L148.881 11.0986H152.759L153.543 13.2266H148.097ZM161.413 15.8726C160.461 15.8726 159.659 15.7233 159.005 15.4246C158.361 15.1259 157.871 14.7199 157.535 14.2066C157.209 13.6839 157.045 13.0866 157.045 12.4146H159.565C159.565 12.6573 159.631 12.8813 159.761 13.0866C159.901 13.2826 160.107 13.4366 160.377 13.5486C160.648 13.6606 160.993 13.7166 161.413 13.7166C161.777 13.7166 162.085 13.6699 162.337 13.5766C162.599 13.4833 162.795 13.3526 162.925 13.1846C163.065 13.0166 163.135 12.8159 163.135 12.5826C163.135 12.2839 163.009 12.0553 162.757 11.8966C162.505 11.7286 162.081 11.6213 161.483 11.5746L160.825 11.5186C159.771 11.4253 158.931 11.0939 158.305 10.5246C157.68 9.95526 157.367 9.19926 157.367 8.25659C157.367 7.58459 157.521 7.01059 157.829 6.53459C158.147 6.05859 158.59 5.69459 159.159 5.44259C159.729 5.19059 160.401 5.06459 161.175 5.06459C162.015 5.06459 162.725 5.20459 163.303 5.48459C163.891 5.76459 164.339 6.16126 164.647 6.67459C164.955 7.17859 165.109 7.76659 165.109 8.43859H162.589C162.589 8.21459 162.533 8.00926 162.421 7.82259C162.309 7.63592 162.146 7.49126 161.931 7.38859C161.726 7.27659 161.474 7.22059 161.175 7.22059C160.895 7.22059 160.657 7.26726 160.461 7.36059C160.275 7.44459 160.13 7.56592 160.027 7.72459C159.934 7.88326 159.887 8.06059 159.887 8.25659C159.887 8.51792 159.976 8.74192 160.153 8.92859C160.331 9.11526 160.639 9.22726 161.077 9.26459L161.735 9.32059C162.501 9.38592 163.177 9.55392 163.765 9.82459C164.353 10.0859 164.815 10.4453 165.151 10.9026C165.487 11.3599 165.655 11.9199 165.655 12.5826C165.655 13.2453 165.483 13.8239 165.137 14.3186C164.801 14.8133 164.316 15.1959 163.681 15.4666C163.056 15.7373 162.3 15.8726 161.413 15.8726ZM174.226 15.5926L170.908 10.8186H169.522L173.652 5.37259H176.648L172.952 10.2446V9.25059L177.362 15.5926H174.226ZM167.422 15.5926V5.37259H170.026V15.5926H167.422Z" fill="white"/>
</svg>
