<svg width="12" height="13" viewBox="0 0 12 13" fill="none" xmlns="http://www.w3.org/2000/svg">
<path d="M8.25 6.5C8.25 7.03906 8.17969 7.53125 8.08594 8H3.89062C3.79688 7.53125 3.75 7.03906 3.75 6.5C3.75 5.98438 3.79688 5.49219 3.89062 5H8.08594C8.17969 5.49219 8.25 5.98438 8.25 6.5ZM8.85938 5H11.7891C11.9297 5.49219 12 5.98438 12 6.5C12 7.03906 11.9297 7.53125 11.7891 8H8.85938C8.95312 7.53125 9 7.03906 9 6.5C9 5.98438 8.95312 5.49219 8.85938 5ZM11.5547 4.25H8.69531C8.29688 2.72656 7.57031 1.4375 6.96094 0.59375C9.04688 0.921875 10.7812 2.35156 11.5547 4.25ZM7.92188 4.25H4.05469C4.33594 3.3125 4.73438 2.49219 5.13281 1.78906C5.4375 1.27344 5.74219 0.851562 6 0.546875C6.23438 0.851562 6.53906 1.27344 6.84375 1.78906C7.24219 2.46875 7.66406 3.3125 7.92188 4.25ZM3.28125 4.25H0.421875C1.19531 2.35156 2.92969 0.921875 5.01562 0.59375C4.40625 1.4375 3.67969 2.72656 3.28125 4.25ZM0.1875 5H3.11719C3.04688 5.49219 3 5.98438 3 6.5C3 7.03906 3.04688 7.53125 3.11719 8H0.1875C0.046875 7.53125 0 7.03906 0 6.5C0 5.98438 0.046875 5.49219 0.1875 5ZM4.05469 8.75H7.92188C7.64062 9.71094 7.24219 10.5312 6.84375 11.2344C6.53906 11.75 6.23438 12.1719 6 12.4766C5.74219 12.1719 5.4375 11.75 5.13281 11.2344C4.73438 10.5312 4.33594 9.71094 4.05469 8.75ZM3.28125 8.75C3.67969 10.2969 4.40625 11.5625 5.01562 12.4297C2.92969 12.1016 1.19531 10.6719 0.421875 8.75H3.28125ZM11.5547 8.75C10.7812 10.6719 9.04688 12.1016 6.96094 12.4297C7.57031 11.5625 8.29688 10.2969 8.69531 8.75H11.5547Z" fill="white"/>
</svg>
