<svg width="21" height="21" viewBox="0 0 21 21" fill="none" xmlns="http://www.w3.org/2000/svg">
<path d="M14.25 10.5C14.25 11.3984 14.1328 12.2188 13.9766 13H6.98438C6.82812 12.2188 6.75 11.3984 6.75 10.5C6.75 9.64062 6.82812 8.82031 6.98438 8H13.9766C14.1328 8.82031 14.25 9.64062 14.25 10.5ZM15.2656 8H20.1484C20.3828 8.82031 20.5 9.64062 20.5 10.5C20.5 11.3984 20.3828 12.2188 20.1484 13H15.2656C15.4219 12.2188 15.5 11.3984 15.5 10.5C15.5 9.64062 15.4219 8.82031 15.2656 8ZM19.7578 6.75H14.9922C14.3281 4.21094 13.1172 2.0625 12.1016 0.65625C15.5781 1.20312 18.4688 3.58594 19.7578 6.75ZM13.7031 6.75H7.25781C7.72656 5.1875 8.39062 3.82031 9.05469 2.64844C9.5625 1.78906 10.0703 1.08594 10.5 0.578125C10.8906 1.08594 11.3984 1.78906 11.9062 2.64844C12.5703 3.78125 13.2734 5.1875 13.7031 6.75ZM5.96875 6.75H1.20312C2.49219 3.58594 5.38281 1.20312 8.85938 0.65625C7.84375 2.0625 6.63281 4.21094 5.96875 6.75ZM0.8125 8H5.69531C5.57812 8.82031 5.5 9.64062 5.5 10.5C5.5 11.3984 5.57812 12.2188 5.69531 13H0.8125C0.578125 12.2188 0.5 11.3984 0.5 10.5C0.5 9.64062 0.578125 8.82031 0.8125 8ZM7.25781 14.25H13.7031C13.2344 15.8516 12.5703 17.2188 11.9062 18.3906C11.3984 19.25 10.8906 19.9531 10.5 20.4609C10.0703 19.9531 9.5625 19.25 9.05469 18.3906C8.39062 17.2188 7.72656 15.8516 7.25781 14.25ZM5.96875 14.25C6.63281 16.8281 7.84375 18.9375 8.85938 20.3828C5.38281 19.8359 2.49219 17.4531 1.20312 14.25H5.96875ZM19.7578 14.25C18.4688 17.4531 15.5781 19.8359 12.1016 20.3828C13.1172 18.9375 14.3281 16.8281 14.9922 14.25H19.7578Z" fill="white"/>
</svg>
