<svg width="35" height="33" viewBox="0 0 35 33" fill="none" xmlns="http://www.w3.org/2000/svg">
<path d="M13.8125 29C12.5 27.375 11.1875 25.25 10.375 22.5H5.9375C7.5625 25.625 10.375 28 13.8125 29ZM15.875 26.75C16.4375 27.5 17 28.125 17.5 28.625C17.9375 28.125 18.5 27.5 19.0625 26.75C19.9375 25.625 20.8125 24.25 21.4375 22.5H13.5C14.1875 24.25 15 25.625 15.875 26.75ZM12.5 16.5C12.5 17.625 12.5625 18.5625 12.75 19.5H22.25C22.375 18.5625 22.5 17.625 22.5 16.5C22.5 15.4375 22.375 14.4375 22.25 13.5H12.75C12.5625 14.4375 12.5 15.4375 12.5 16.5ZM9.6875 13.5H4.8125C4.5625 14.5 4.5 15.5 4.5 16.5C4.5 17.5625 4.625 18.5625 4.8125 19.5H9.6875C9.5625 18.5625 9.5 17.5625 9.5 16.5C9.5 15.5 9.5625 14.5 9.6875 13.5ZM13.5 10.5H21.4375C20.8125 8.8125 19.9375 7.375 19.0625 6.25C18.5 5.5625 17.9375 4.9375 17.5 4.4375C17 4.9375 16.4375 5.5625 15.875 6.25C15 7.375 14.1875 8.8125 13.5 10.5ZM25.25 13.5C25.375 14.5 25.5 15.5 25.5 16.5C25.5 17.5625 25.375 18.5625 25.25 19.5H30.125C30.375 18.5625 30.5 17.5625 30.5 16.5C30.5 15.5 30.375 14.5 30.125 13.5H25.25ZM29 10.5C27.375 7.4375 24.5625 5.0625 21.125 4.0625C22.4375 5.6875 23.75 7.8125 24.5625 10.5H29ZM10.375 10.5C11.1875 7.8125 12.5 5.6875 13.8125 4.0625C10.375 5.0625 7.5625 7.4375 5.9375 10.5H10.375ZM21.125 29C24.5625 28 27.375 25.625 29 22.5H24.5625C23.75 25.25 22.4375 27.375 21.125 29ZM17.5 32.5C11.75 32.5 6.5 29.5 3.625 24.5C0.75 19.5625 0.75 13.5 3.625 8.5C6.5 3.5625 11.75 0.5 17.5 0.5C23.1875 0.5 28.4375 3.5625 31.3125 8.5C34.1875 13.5 34.1875 19.5625 31.3125 24.5C28.4375 29.5 23.1875 32.5 17.5 32.5Z" fill="white"/>
</svg>
