<svg width="14" height="15" viewBox="0 0 14 15" fill="none" xmlns="http://www.w3.org/2000/svg">
<path d="M6.78125 0.96875C10.5 0.96875 13.5625 4.03125 13.5625 7.75C13.5625 11.4961 10.5 14.5312 6.78125 14.5312C3.03516 14.5312 0 11.4961 0 7.75C0 4.03125 3.03516 0.96875 6.78125 0.96875ZM9.89844 5.58984C9.92578 5.50781 9.92578 5.42578 9.89844 5.31641C9.89844 5.26172 9.84375 5.17969 9.81641 5.15234C9.73438 5.07031 9.59766 5.07031 9.54297 5.07031C9.29688 5.07031 8.88672 5.20703 7 6C6.34375 6.27344 5.03125 6.82031 3.0625 7.69531C2.73438 7.83203 2.57031 7.94141 2.54297 8.07812C2.51562 8.29688 2.87109 8.37891 3.28125 8.51562C3.63672 8.625 4.10156 8.76172 4.34766 8.76172C4.56641 8.76172 4.8125 8.67969 5.08594 8.48828C6.91797 7.23047 7.875 6.60156 7.92969 6.60156C7.98438 6.60156 8.03906 6.57422 8.06641 6.60156C8.12109 6.65625 8.12109 6.71094 8.09375 6.73828C8.06641 6.875 6.34375 8.46094 6.23438 8.57031C5.85156 8.95312 5.41406 9.19922 6.09766 9.63672C6.67188 10.0195 7 10.2656 7.60156 10.6484C7.98438 10.8945 8.28516 11.1953 8.66797 11.168C8.85938 11.1406 9.05078 10.9766 9.13281 10.457C9.37891 9.28125 9.81641 6.65625 9.89844 5.58984Z" fill="white"/>
<a href="https://t.me/ShibChainL2">
<rect fill="black" fill-opacity="0" y="3" width="13.5625" height="14"/>
</a>
</svg>
