<svg width="393" height="504" viewBox="0 0 393 504" fill="none" xmlns="http://www.w3.org/2000/svg">
<g filter="url(#filter0_d_1_267)">
<path d="M432.262 132.52L393.347 103.801L393.396 149.439L436.5 180.891L432.262 132.52Z" fill="url(#paint0_linear_1_267)"/>
<path d="M425.223 152.011L431.8 133.687L423.784 148.474L393.371 149.159L425.223 152.011Z" fill="#FFF0E8"/>
</g>
<g filter="url(#filter1_d_1_267)">
<path d="M125.139 87.6675V103.166L140.848 95.7039L164.752 106.611V129.572L140.848 141.052L117.626 129.572V68.1504L78.0125 49.2074L37.7159 68.1504V106.611L78.0125 126.128L93.7213 118.665V103.166L78.0125 110.629L54.7907 99.1481V76.1869L78.0125 65.2803L101.234 76.1869V137.034L140.848 157.125L181.144 137.034V99.1481L140.848 80.2051L125.139 87.6675Z" fill="url(#paint1_linear_1_267)"/>
<path d="M125.639 87.9835V102.375L140.633 95.2523L140.843 95.1524L141.055 95.2491L164.96 106.156L165.252 106.289V106.611V129.572V129.886L164.969 130.023L141.064 141.503L140.845 141.609L140.626 141.501L117.404 130.02L117.126 129.882V129.572V68.4656L78.0106 49.7607L38.2159 68.4679V106.297L78.0145 125.573L93.2213 118.349V103.957L78.227 111.08L78.0081 111.184L77.7909 111.077L54.5691 99.5963L54.2907 99.4587V99.1481V76.1869V75.8693L54.5782 75.7343L77.7999 64.8277L78.0125 64.7279L78.225 64.8277L101.447 75.7343L101.734 75.8693V76.1869V136.727L140.85 156.566L180.644 136.725V99.4656L140.849 80.7581L125.639 87.9835Z" stroke="url(#paint2_linear_1_267)"/>
</g>
<g filter="url(#filter2_b_1_267)">
<path d="M370.111 168.724L201.432 84.5076L32.7518 168.724L201.432 252.94L370.111 168.724Z" fill="white" fill-opacity="0.1"/>
</g>
<g filter="url(#filter3_b_1_267)">
<path d="M370.111 252.94L201.432 169.228L32.7518 252.94L201.432 336.652L370.111 252.94Z" fill="white" fill-opacity="0.1"/>
</g>
<g filter="url(#filter4_b_1_267)">
<path d="M370.111 337.157L201.432 252.94L32.7518 337.157L201.432 421.373L370.111 337.157Z" fill="white" fill-opacity="0.1"/>
</g>
<g filter="url(#filter5_d_1_267)">
<path d="M387.497 226.556L313.815 172.178L313.906 258.591L395.522 318.145L387.497 226.556Z" fill="url(#paint3_linear_1_267)"/>
<path d="M374.169 263.463L386.623 228.766L371.445 256.766L313.86 258.062L374.169 263.463Z" fill="#FFF0E8"/>
<path d="M314.484 173.72L370.823 255.753L387.014 227.132L314.484 173.72Z" fill="#FFE573"/>
<path d="M395.522 318.145L374.839 265.005L314.483 259.075L395.522 318.145Z" fill="url(#paint4_linear_1_267)"/>
<path d="M374.839 265.005L387.245 229.779L394.946 317.662L374.839 265.005Z" fill="url(#paint5_linear_1_267)"/>
</g>
<g filter="url(#filter6_d_1_267)">
<path d="M88.7726 327.955C84.2904 331.164 80.042 334.772 76.1026 338.745L75.2378 338.212C70.2511 335.136 64.9112 332.757 59.3604 331.155C57.6932 330.652 51.3596 329.308 49.2615 329.012C42.9186 328.139 37.9122 328.148 32.0295 329.067C31.7915 329.116 31.5804 329.146 31.3693 329.176C29.2747 323.947 26.771 318.931 23.843 314.199C44.0644 307.902 65.4569 311.172 82.6706 323.172C84.5171 324.436 86.2897 325.833 88.0035 327.293L88.7726 327.955Z" fill="url(#paint6_linear_1_267)"/>
<path d="M103.217 425.523C98.6534 433.499 92.8501 440.564 86.0461 446.345C82.3598 449.45 78.4347 452.179 74.3362 454.548C64.771 459.943 54.2878 463.025 43.6859 463.565C31.9617 464.141 20.3828 461.684 9.90685 456.396C0.419814 451.592 -7.87998 444.523 -14.4208 435.71C-17.2 431.881 -19.6738 427.794 -21.7769 423.46C-32.8942 400.347 -31.7468 372.087 -18.7016 349.169C-16.2524 344.93 -13.4687 340.937 -10.3607 337.236C-8.93178 335.546 -7.21272 333.669 -6.41555 332.916C-6.42184 343.205 -5.69559 352.403 -5.40267 355.729C-5.50349 355.882 -5.63114 356.054 -5.75372 356.202C-13.22 366.378 -18.2712 376.642 -21.3801 388.041C-21.4106 388.184 -21.4679 388.346 -21.4983 388.489C-22.4082 391.909 -22.6713 393.572 -22.6107 395.852C-22.4245 402.992 -18.9902 411.545 -12.6742 420.559C-2.32513 435.313 13.3267 447.704 26.3684 451.518C39.9709 455.477 62.2471 450.961 78.5787 440.924C81.1531 439.302 83.6223 437.534 85.9914 435.595C87.7061 434.165 90.3377 431.635 90.1854 431.602C90.1419 431.593 90.1955 431.555 90.2927 431.525C90.3682 431.492 90.4487 431.434 90.4153 431.377C90.3986 431.348 90.4574 431.286 90.5277 431.276C90.5981 431.266 90.6518 431.228 90.6402 431.176C90.6286 431.123 90.6605 431.08 90.7526 431.075C90.823 431.065 90.8599 430.998 90.8483 430.946C90.8367 430.893 90.8686 430.85 90.9122 430.86C90.9557 430.869 91.0145 430.806 91.0246 430.759C91.0348 430.711 91.0935 430.649 91.137 430.658C91.1806 430.667 91.2342 430.629 91.2444 430.581C91.3503 430.404 91.4997 430.237 91.644 430.093C92.0872 429.614 93.9361 427.341 94.2015 426.948C96.0967 424.137 97.4638 421.562 98.4173 418.899C98.8705 417.625 99.4919 415.24 99.5266 414.649C99.5252 414.549 99.5607 414.383 99.5947 414.116C99.6527 413.63 99.7832 412.91 99.8919 412.186C100.077 411.104 100.309 409.583 100.401 408.831C101.769 397.81 101.127 388.43 98.333 378.045C98.2132 377.646 98.1152 377.252 98.0673 376.942C98.039 376.862 98.0324 376.785 98.0208 376.733C99.1674 374.659 103.906 365.973 108.362 355.832L108.395 355.889L108.62 356.435C109.008 357.389 109.983 360.187 110.404 361.522C112.305 367.656 113.446 374.052 113.835 380.563C114.623 396.202 110.937 411.914 103.217 425.523Z" fill="url(#paint7_linear_1_267)"/>
<path d="M81.0305 391.041C80.884 391.408 79.6175 392.336 78.417 392.953C74.9009 394.723 69.048 395.823 63.3567 395.736C60.1124 395.695 56.9797 395.13 56.1504 394.431C55.612 393.968 55.5808 393.687 55.9811 392.875C56.8187 391.184 58.7149 389.543 61.4127 388.198C62.7859 387.517 68.2272 385.359 70.7314 384.495C74.8548 383.078 78.0939 382.395 80.1622 382.51C80.8137 382.549 81.5805 382.687 81.7946 382.857C82.1508 383.107 82.3172 384.462 82.1665 386.025C82.081 386.854 81.2764 390.42 81.0305 391.041Z" fill="black"/>
<path d="M28.073 388.048C27.8815 388.306 27.1626 388.477 26.3972 388.439C25.6318 388.402 23.3835 387.85 22.1349 387.41C17.6629 385.763 13.0956 383.175 9.93213 380.51C8.15811 379.012 6.94996 377.635 6.13213 376.24L5.66988 375.42L5.7974 374.5C6.02349 372.903 6.57299 370.429 6.93486 369.584C7.20099 368.868 7.59263 368.204 8.05611 367.629C8.28097 367.428 8.28097 367.428 9.06451 367.594C10.0222 367.798 10.7919 368.135 12.0014 368.865C14.4857 370.339 18.0018 373.378 22.1754 377.602C25.6219 381.074 26.8497 382.68 27.6277 384.689C28.1778 385.952 28.3704 387.613 28.073 388.048Z" fill="black"/>
<path d="M51.8285 427.771C51.8132 427.843 51.3085 428.932 50.6928 430.221C50.0771 431.511 49.5825 432.552 49.5723 432.599C49.3278 432.572 49.1051 432.55 48.8708 432.475L48.1743 432.328L46.6889 434.603C45.8773 435.851 45.1295 437.013 45.0237 437.19L44.822 437.496L44.5375 436.588L44.253 435.681L45.6586 429.078L45.4743 429.089C45.084 429.105 42.3693 428.928 41.1904 428.802C36.3122 428.315 31.5493 427.18 26.9619 425.433C26.2255 425.153 25.5928 424.919 25.566 424.938C25.5392 424.957 25.2362 426.487 24.8788 428.38L24.2236 431.779L23.7216 432.32C23.4547 432.612 23.1979 432.857 23.1928 432.88C23.1123 432.938 22.9759 432.51 22.7087 431.308C22.4081 430.048 22.2752 428.749 22.2612 427.426L22.256 426.702L21.5711 426.606L20.8812 426.535L20.8948 425.616C20.9092 425.121 20.9577 424.358 21.0005 423.944L21.0976 423.167L20.6484 422.499C20.3878 422.12 20.1274 421.741 20.0722 421.679C19.9837 421.561 19.9757 421.384 20.0061 421.241L20.067 420.955L22.7825 421.557L25.4981 422.158L25.5192 422.486L25.5403 422.815L26.466 423.061C26.9833 423.196 28.6273 423.594 30.0971 423.956L32.8025 424.605L33.7527 423.561L34.7246 422.522L35.6388 422.716L36.1447 420.232L36.6507 417.748L35.5754 416.922C32.1188 414.245 30.3069 411.643 30.0061 408.888C29.9436 408.327 29.9842 408.136 30.4481 405.743C30.9287 403.379 30.9744 403.164 31.2384 402.672C31.7968 401.545 32.8435 400.795 33.9978 400.716C34.3931 400.676 35.3726 400.884 40.5091 401.974L46.5546 403.282L47.1532 403.783C47.8672 404.383 48.1712 404.771 48.4862 405.535C48.8461 406.409 48.8717 407.037 48.5621 408.492C48.1207 410.565 47.6095 412.326 47.2614 412.999C46.7704 413.916 46.1372 414.754 45.4155 415.473C44.0025 416.767 41.6971 417.872 39.7435 418.18L39.1754 418.284L38.6644 420.792L38.1534 423.299L38.622 423.449L39.0907 423.598L39.5153 424.809L39.9181 426.016L42.8346 426.635C44.4452 426.977 45.8549 427.301 45.9804 427.352C46.1879 427.446 46.2365 427.432 46.5404 427.073L46.8929 426.699L49.3959 427.23C51.288 427.532 51.8437 427.7 51.8285 427.771Z" fill="black"/>
<path d="M38.8803 432.174C38.411 432.348 38.1027 432.407 38.0475 432.346C37.9873 432.308 37.7435 431.957 37.4728 431.626L36.9968 430.977L36.2352 431.562C34.5726 432.854 34.5138 432.916 34.117 432.857C33.4924 432.799 33.3872 432.652 32.906 431.279C32.6461 430.576 32.453 429.987 32.453 429.987C32.453 429.987 32.1803 429.88 31.8589 429.786L31.2647 429.586L30.8447 430.169L30.4248 430.753L29.9597 430.48C29.5984 430.253 29.2421 430.003 28.9127 429.734L28.3359 429.238L28.6251 427.879L34.4095 429.132L40.1939 430.384L40.0786 431.033C39.938 431.8 39.9648 431.781 38.8803 432.174Z" fill="black"/>
<path d="M99.4832 414.64C99.4817 414.54 99.5172 414.373 99.5513 414.106C94.4596 412.378 79.6319 408.832 63.1254 418.409C63.1254 418.409 63.4335 395.054 42.5393 390.62C21.645 386.185 9.12687 406.948 9.12687 406.948C0.355428 390.661 -15.5284 388.336 -21.3801 388.041C-21.4105 388.184 -21.4678 388.346 -21.4983 388.489C-22.4081 391.909 -22.6712 393.572 -22.6106 395.852C-22.4245 402.992 -18.9901 411.544 -12.6741 420.559C-2.32506 435.312 13.3268 447.704 26.3685 451.518C39.971 455.476 62.2472 450.961 78.5788 440.923C81.1532 439.302 83.6224 437.534 85.9914 435.595C87.7062 434.165 90.3378 431.634 90.1855 431.602C90.1419 431.593 90.1956 431.554 90.2928 431.525C90.3683 431.491 90.4488 431.434 90.4154 431.377C90.3987 431.348 90.4575 431.286 90.5278 431.276C90.5982 431.266 90.6519 431.228 90.6403 431.175C90.6286 431.123 90.6606 431.08 90.7527 431.075C90.8231 431.065 90.86 430.998 90.8484 430.945C90.8368 430.893 90.8687 430.85 90.9123 430.859C90.9558 430.869 91.0146 430.806 91.0247 430.759C91.0348 430.711 91.0936 430.649 91.1371 430.658C91.1806 430.667 91.2343 430.629 91.2445 430.581C91.3504 430.404 91.4998 430.237 91.6441 430.093C92.0873 429.614 93.9361 427.34 94.2016 426.948C96.0968 424.136 97.4639 421.561 98.4174 418.899C98.8271 417.615 99.4485 415.231 99.4832 414.64ZM38.8804 432.174C38.411 432.348 38.1027 432.407 38.0475 432.346C37.9873 432.308 37.7435 431.957 37.4728 431.626L36.9968 430.977L36.2352 431.562C34.5726 432.854 34.5139 432.916 34.117 432.857C33.4924 432.799 33.3872 432.652 32.906 431.279C32.6461 430.576 32.4531 429.987 32.4531 429.987C32.4531 429.987 32.1803 429.88 31.8589 429.786L31.2647 429.586L30.8447 430.169L30.4248 430.753L29.9597 430.48C29.5984 430.253 29.2421 430.003 28.9127 429.734L28.3359 429.238L28.6251 427.879L34.4095 429.132L40.1939 430.385L40.0786 431.033C39.938 431.8 39.9649 431.781 38.8804 432.174ZM50.6762 430.193C50.0605 431.482 49.5658 432.523 49.5557 432.571C49.3112 432.544 49.0885 432.521 48.8542 432.447L48.1577 432.299L46.689 434.603C45.8774 435.851 45.1296 437.013 45.0237 437.19L44.8221 437.496L44.5376 436.588L44.253 435.681L45.6586 429.078L45.4744 429.089C45.0841 429.105 42.3693 428.928 41.1904 428.802C36.3123 428.315 31.5494 427.179 26.9619 425.433C26.2255 425.153 25.5929 424.919 25.5661 424.938C25.5392 424.957 25.2363 426.487 24.8789 428.38L24.2236 431.779L23.7217 432.32C23.4548 432.612 23.198 432.856 23.1929 432.88C23.1124 432.938 22.9759 432.51 22.7088 431.308C22.4082 430.048 22.2753 428.749 22.2613 427.426L22.256 426.702L21.5712 426.606L20.8813 426.535L20.8949 425.616C20.9093 425.12 20.9578 424.358 21.0005 423.944L21.0976 423.167L20.6484 422.499C20.3879 422.12 20.1274 421.74 20.0723 421.679C19.9838 421.56 19.9757 421.384 20.0062 421.241L20.0671 420.955L22.7826 421.557L25.4981 422.158L25.5192 422.486L25.5403 422.815L26.4661 423.061C26.9834 423.196 28.6273 423.594 30.0972 423.956L32.8026 424.605L33.7528 423.561L34.7247 422.522L35.6389 422.716L36.1448 420.232L36.6508 417.748L35.5755 416.922C32.1189 414.245 30.307 411.643 30.0062 408.888C29.9437 408.327 29.9843 408.136 30.4482 405.743C30.9288 403.379 30.9745 403.164 31.2385 402.672C31.7969 401.545 32.8436 400.795 33.9978 400.716C34.3932 400.676 35.3726 400.883 40.5091 401.974L46.5547 403.282L47.1533 403.782C47.8672 404.382 48.1713 404.771 48.4862 405.535C48.8462 406.409 48.8717 407.037 48.5622 408.491C48.1207 410.565 47.6096 412.325 47.2614 412.999C46.7705 413.916 46.1372 414.754 45.4155 415.472C44.0025 416.767 41.6972 417.872 39.7435 418.18L39.1755 418.284L38.6645 420.792L38.1534 423.299L38.6221 423.448L39.0908 423.598L39.5154 424.809L39.9182 426.016L42.8347 426.635C44.4453 426.977 45.8549 427.301 45.9804 427.352C46.1879 427.446 46.2366 427.432 46.5405 427.072L46.893 426.699L49.3959 427.23C51.333 427.641 51.8938 427.785 51.8786 427.857C51.8184 427.819 51.2868 428.927 50.6762 430.193Z" fill="white"/>
<path d="M99.8267 412.172C100.011 411.09 100.244 409.569 100.336 408.817C101.704 397.796 101.062 388.416 98.2678 378.031C98.148 377.632 98.05 377.238 98.0021 376.928C97.9738 376.848 97.9672 376.772 97.9556 376.719C99.1022 374.645 103.84 365.959 108.297 355.818C114.343 342.053 119.819 325.625 115.106 319.343C115.106 319.343 105.266 316.407 88.7943 327.96C84.3122 331.169 80.0637 334.777 76.1243 338.749L75.2595 338.217C70.2728 335.141 64.933 332.761 59.3821 331.16C57.7149 330.656 51.3814 329.312 49.2833 329.016C42.9403 328.143 37.9339 328.152 32.0512 329.071C31.8133 329.12 31.6021 329.15 31.391 329.18C29.2965 323.952 26.7928 318.936 23.8647 314.204C12.9936 296.773 2.43416 295.404 2.43416 295.404C-4.81481 299.321 -6.47025 317.357 -6.45898 332.907C-6.46526 343.195 -5.739 352.393 -5.44609 355.719C-5.5469 355.872 -5.67455 356.045 -5.79713 356.193C-13.2634 366.368 -18.3146 376.632 -21.4236 388.031C-15.5501 388.331 0.317005 390.628 9.10513 406.944C9.10513 406.944 21.6233 386.18 42.5176 390.615C63.4118 395.05 63.1037 418.405 63.1037 418.405C79.6102 408.828 94.4328 412.397 99.5295 414.102C99.6092 413.62 99.718 412.896 99.8267 412.172ZM0.580501 347.606C0.580501 347.606 -2.81504 323.589 1.98408 311.303C2.78901 309.232 3.84284 307.487 5.17025 306.274C5.17025 306.274 14.1854 309.234 25.2161 330.511C25.2161 330.511 22.067 331.412 17.5999 333.802C17.5999 333.802 17.5731 333.822 17.5513 333.817C12.702 336.4 6.26778 340.765 0.580501 347.606ZM28.073 388.048C27.8815 388.306 27.1626 388.477 26.3973 388.439C25.6319 388.402 23.3836 387.85 22.135 387.41C17.6629 385.763 13.0956 383.175 9.93216 380.51C8.15814 379.012 6.94999 377.635 6.13216 376.24L5.66991 375.42L5.79744 374.5C6.02352 372.903 6.57302 370.429 6.93489 369.584C7.20102 368.868 7.59266 368.204 8.05614 367.629C8.281 367.428 8.28101 367.428 9.06454 367.594C10.0222 367.798 10.792 368.135 12.0014 368.865C14.4857 370.339 18.0018 373.378 22.1754 377.602C25.622 381.074 26.8497 382.68 27.6278 384.689C28.1779 385.952 28.3704 387.612 28.073 388.048ZM81.0306 391.041C80.8841 391.408 79.6176 392.335 78.4171 392.953C74.901 394.723 69.0481 395.823 63.3568 395.736C60.1125 395.695 56.9798 395.13 56.1505 394.431C55.6121 393.967 55.5809 393.687 55.9812 392.875C56.8188 391.184 58.7149 389.543 61.4127 388.198C62.7859 387.517 68.2273 385.359 70.7315 384.495C74.8548 383.078 78.0939 382.395 80.1623 382.51C80.8137 382.549 81.5806 382.686 81.7946 382.856C82.1509 383.106 82.3172 384.462 82.1666 386.025C82.0811 386.854 81.2764 390.42 81.0306 391.041ZM86.3333 348.391L86.2948 348.358C83.3183 344.387 80.8956 342.303 80.8956 342.303C99.1387 327.24 108.254 328.128 108.254 328.128C108.923 329.79 109.159 331.784 109.05 334.003C108.365 347.162 95.7581 367.807 95.7581 367.807C93.8367 360.697 90.6261 354.086 86.3333 348.391Z" fill="#FFA409"/>
<path d="M109.072 334.008C107.425 333.409 99.4042 331.657 86.3332 348.391L86.2948 348.358C83.3183 344.387 80.8956 342.304 80.8956 342.304C99.1386 327.24 108.254 328.128 108.254 328.128C108.945 329.795 109.181 331.788 109.072 334.008Z" fill="#FF9300"/>
<path d="M95.7799 367.811C93.8418 360.673 90.6479 354.09 86.3333 348.391C99.4042 331.657 107.404 333.404 109.072 334.008C108.382 347.19 95.7799 367.811 95.7799 367.811Z" fill="#FF8300"/>
<path d="M109.383 334.148C109.279 334.101 109.176 334.055 109.072 334.008L109.383 334.148Z" fill="#FF8300"/>
<path d="M25.2212 330.487C25.2212 330.487 22.0721 331.388 17.6051 333.779C17.6051 333.779 17.5782 333.798 17.5565 333.793C12.1106 313.104 3.80295 311.415 1.96749 311.275C2.77242 309.204 3.82625 307.459 5.15366 306.246C5.17542 306.25 14.1906 309.21 25.2212 330.487Z" fill="#FF9300"/>
<path d="M17.5781 333.798C12.7019 336.401 6.27278 340.742 0.580427 347.606C0.580427 347.606 -2.81512 323.59 1.98908 311.28C3.80278 311.416 12.1271 313.133 17.5781 333.798Z" fill="#FF8300"/>
<path d="M1.98867 311.28C1.87493 311.281 1.73945 311.277 1.62571 311.277L1.98867 311.28Z" fill="#FF8300"/>
<path d="M71.1202 375.508C71.1202 375.508 64.054 374.507 66.1932 368.732C68.3323 362.957 73.9258 363.397 75.3986 363.959C76.8714 364.521 82.4581 368.198 80.3042 372.973C78.1504 377.748 76.8298 376.471 75.9085 376.525C74.9872 376.578 71.1202 375.508 71.1202 375.508Z" fill="white"/>
<path d="M19.7553 364.606C19.7553 364.606 12.6891 363.605 14.8282 357.83C16.9674 352.055 22.5609 352.495 24.0337 353.057C25.5065 353.619 31.0932 357.296 28.9393 362.071C26.7855 366.846 25.4649 365.569 24.5436 365.623C23.6222 365.676 19.7553 364.606 19.7553 364.606Z" fill="white"/>
</g>
<g filter="url(#filter7_d_1_267)">
<path d="M88.5676 229.477L62.8945 201.34L92.3426 209.53L88.5676 229.477Z" fill="url(#paint8_linear_1_267)"/>
<path d="M88.5676 229.477L62.8945 201.34L92.3426 209.53L88.5676 229.477Z" stroke="url(#paint9_linear_1_267)"/>
</g>
<g filter="url(#filter8_d_1_267)">
<path d="M266.905 241.333L237.827 253.213L248.278 231.435L266.905 241.333Z" fill="url(#paint10_linear_1_267)"/>
<path d="M266.905 241.333L237.827 253.213L248.278 231.435L266.905 241.333Z" stroke="url(#paint11_linear_1_267)"/>
</g>
<g filter="url(#filter9_d_1_267)">
<path d="M192.22 372.802L160.987 376.189L177.061 358.147L192.22 372.802Z" fill="url(#paint12_linear_1_267)"/>
<path d="M192.22 372.802L160.987 376.189L177.061 358.147L192.22 372.802Z" stroke="url(#paint13_linear_1_267)"/>
</g>
<g filter="url(#filter10_d_1_267)">
<path d="M258.822 467.431L245.025 450.828L259.785 448.031L258.822 467.431Z" fill="url(#paint14_linear_1_267)"/>
<path d="M258.822 467.431L245.025 450.828L259.785 448.031L258.822 467.431Z" stroke="url(#paint15_linear_1_267)"/>
</g>
<g filter="url(#filter11_d_1_267)">
<path d="M319.548 107.283L305.724 97.1497L318.13 94.2601L319.548 107.283Z" fill="url(#paint16_linear_1_267)"/>
<path d="M319.548 107.283L305.724 97.1497L318.13 94.2601L319.548 107.283Z" stroke="url(#paint17_linear_1_267)"/>
</g>
<g filter="url(#filter12_d_1_267)">
<path d="M192.925 27L204.56 42.0221L190.45 41.3163L192.925 27Z" fill="url(#paint18_linear_1_267)"/>
<path d="M192.925 27L204.56 42.0221L190.45 41.3163L192.925 27Z" stroke="url(#paint19_linear_1_267)"/>
</g>
<g filter="url(#filter13_d_1_267)">
<path d="M13.8467 146.98L21.4532 134.068L25.0719 144.593L13.8467 146.98Z" fill="url(#paint20_linear_1_267)"/>
<path d="M13.8467 146.98L21.4532 134.068L25.0719 144.593L13.8467 146.98Z" stroke="url(#paint21_linear_1_267)"/>
</g>
<defs>
<filter id="filter0_d_1_267" x="333.347" y="63.8005" width="143.153" height="177.091" filterUnits="userSpaceOnUse" color-interpolation-filters="sRGB">
<feFlood flood-opacity="0" result="BackgroundImageFix"/>
<feColorMatrix in="SourceAlpha" type="matrix" values="0 0 0 0 0 0 0 0 0 0 0 0 0 0 0 0 0 0 127 0" result="hardAlpha"/>
<feOffset dx="-10" dy="10"/>
<feGaussianBlur stdDeviation="25"/>
<feComposite in2="hardAlpha" operator="out"/>
<feColorMatrix type="matrix" values="0 0 0 0 1 0 0 0 0 0.898039 0 0 0 0 0.45098 0 0 0 0.5 0"/>
<feBlend mode="normal" in2="BackgroundImageFix" result="effect1_dropShadow_1_267"/>
<feBlend mode="normal" in="SourceGraphic" in2="effect1_dropShadow_1_267" result="shape"/>
</filter>
<filter id="filter1_d_1_267" x="-2.28406" y="9.2074" width="243.428" height="207.918" filterUnits="userSpaceOnUse" color-interpolation-filters="sRGB">
<feFlood flood-opacity="0" result="BackgroundImageFix"/>
<feColorMatrix in="SourceAlpha" type="matrix" values="0 0 0 0 0 0 0 0 0 0 0 0 0 0 0 0 0 0 127 0" result="hardAlpha"/>
<feOffset dx="10" dy="10"/>
<feGaussianBlur stdDeviation="25"/>
<feComposite in2="hardAlpha" operator="out"/>
<feColorMatrix type="matrix" values="0 0 0 0 0.837983 0 0 0 0 0.179137 0 0 0 0 0.970736 0 0 0 0.5 0"/>
<feBlend mode="normal" in2="BackgroundImageFix" result="effect1_dropShadow_1_267"/>
<feBlend mode="normal" in="SourceGraphic" in2="effect1_dropShadow_1_267" result="shape"/>
</filter>
<filter id="filter2_b_1_267" x="7.75177" y="59.5076" width="387.36" height="218.433" filterUnits="userSpaceOnUse" color-interpolation-filters="sRGB">
<feFlood flood-opacity="0" result="BackgroundImageFix"/>
<feGaussianBlur in="BackgroundImageFix" stdDeviation="12.5"/>
<feComposite in2="SourceAlpha" operator="in" result="effect1_backgroundBlur_1_267"/>
<feBlend mode="normal" in="SourceGraphic" in2="effect1_backgroundBlur_1_267" result="shape"/>
</filter>
<filter id="filter3_b_1_267" x="7.75177" y="144.228" width="387.36" height="217.424" filterUnits="userSpaceOnUse" color-interpolation-filters="sRGB">
<feFlood flood-opacity="0" result="BackgroundImageFix"/>
<feGaussianBlur in="BackgroundImageFix" stdDeviation="12.5"/>
<feComposite in2="SourceAlpha" operator="in" result="effect1_backgroundBlur_1_267"/>
<feBlend mode="normal" in="SourceGraphic" in2="effect1_backgroundBlur_1_267" result="shape"/>
</filter>
<filter id="filter4_b_1_267" x="7.75177" y="227.94" width="387.36" height="218.433" filterUnits="userSpaceOnUse" color-interpolation-filters="sRGB">
<feFlood flood-opacity="0" result="BackgroundImageFix"/>
<feGaussianBlur in="BackgroundImageFix" stdDeviation="12.5"/>
<feComposite in2="SourceAlpha" operator="in" result="effect1_backgroundBlur_1_267"/>
<feBlend mode="normal" in="SourceGraphic" in2="effect1_backgroundBlur_1_267" result="shape"/>
</filter>
<filter id="filter5_d_1_267" x="253.814" y="132.177" width="181.708" height="245.968" filterUnits="userSpaceOnUse" color-interpolation-filters="sRGB">
<feFlood flood-opacity="0" result="BackgroundImageFix"/>
<feColorMatrix in="SourceAlpha" type="matrix" values="0 0 0 0 0 0 0 0 0 0 0 0 0 0 0 0 0 0 127 0" result="hardAlpha"/>
<feOffset dx="-10" dy="10"/>
<feGaussianBlur stdDeviation="25"/>
<feComposite in2="hardAlpha" operator="out"/>
<feColorMatrix type="matrix" values="0 0 0 0 1 0 0 0 0 0.898039 0 0 0 0 0.45098 0 0 0 0.5 0"/>
<feBlend mode="normal" in2="BackgroundImageFix" result="effect1_dropShadow_1_267"/>
<feBlend mode="normal" in="SourceGraphic" in2="effect1_dropShadow_1_267" result="shape"/>
</filter>
<filter id="filter6_d_1_267" x="-69.3694" y="235.404" width="246.255" height="268.244" filterUnits="userSpaceOnUse" color-interpolation-filters="sRGB">
<feFlood flood-opacity="0" result="BackgroundImageFix"/>
<feColorMatrix in="SourceAlpha" type="matrix" values="0 0 0 0 0 0 0 0 0 0 0 0 0 0 0 0 0 0 127 0" result="hardAlpha"/>
<feOffset dx="10" dy="-10"/>
<feGaussianBlur stdDeviation="25"/>
<feComposite in2="hardAlpha" operator="out"/>
<feColorMatrix type="matrix" values="0 0 0 0 0.941176 0 0 0 0 0.0196078 0 0 0 0 0 0 0 0 0.5 0"/>
<feBlend mode="normal" in2="BackgroundImageFix" result="effect1_dropShadow_1_267"/>
<feBlend mode="normal" in="SourceGraphic" in2="effect1_dropShadow_1_267" result="shape"/>
</filter>
<filter id="filter7_d_1_267" x="36.3527" y="175.393" width="81.5667" height="80.1615" filterUnits="userSpaceOnUse" color-interpolation-filters="sRGB">
<feFlood flood-opacity="0" result="BackgroundImageFix"/>
<feColorMatrix in="SourceAlpha" type="matrix" values="0 0 0 0 0 0 0 0 0 0 0 0 0 0 0 0 0 0 127 0" result="hardAlpha"/>
<feOffset/>
<feGaussianBlur stdDeviation="12.5"/>
<feComposite in2="hardAlpha" operator="out"/>
<feColorMatrix type="matrix" values="0 0 0 0 0.837983 0 0 0 0 0.179137 0 0 0 0 0.970736 0 0 0 1 0"/>
<feBlend mode="normal" in2="BackgroundImageFix" result="effect1_dropShadow_1_267"/>
<feBlend mode="normal" in="SourceGraphic" in2="effect1_dropShadow_1_267" result="shape"/>
</filter>
<filter id="filter8_d_1_267" x="211.815" y="205.749" width="81.2667" height="73.4166" filterUnits="userSpaceOnUse" color-interpolation-filters="sRGB">
<feFlood flood-opacity="0" result="BackgroundImageFix"/>
<feColorMatrix in="SourceAlpha" type="matrix" values="0 0 0 0 0 0 0 0 0 0 0 0 0 0 0 0 0 0 127 0" result="hardAlpha"/>
<feOffset/>
<feGaussianBlur stdDeviation="12.5"/>
<feComposite in2="hardAlpha" operator="out"/>
<feColorMatrix type="matrix" values="0 0 0 0 1 0 0 0 0 0.898039 0 0 0 0 0.45098 0 0 0 1 0"/>
<feBlend mode="normal" in2="BackgroundImageFix" result="effect1_dropShadow_1_267"/>
<feBlend mode="normal" in="SourceGraphic" in2="effect1_dropShadow_1_267" result="shape"/>
</filter>
<filter id="filter9_d_1_267" x="134.749" y="332.426" width="83.5851" height="69.4006" filterUnits="userSpaceOnUse" color-interpolation-filters="sRGB">
<feFlood flood-opacity="0" result="BackgroundImageFix"/>
<feColorMatrix in="SourceAlpha" type="matrix" values="0 0 0 0 0 0 0 0 0 0 0 0 0 0 0 0 0 0 127 0" result="hardAlpha"/>
<feOffset/>
<feGaussianBlur stdDeviation="12.5"/>
<feComposite in2="hardAlpha" operator="out"/>
<feColorMatrix type="matrix" values="0 0 0 0 0.941176 0 0 0 0 0.0196078 0 0 0 0 0 0 0 0 1 0"/>
<feBlend mode="normal" in2="BackgroundImageFix" result="effect1_dropShadow_1_267"/>
<feBlend mode="normal" in="SourceGraphic" in2="effect1_dropShadow_1_267" result="shape"/>
</filter>
<filter id="filter10_d_1_267" x="219.098" y="422.421" width="66.2178" height="71.317" filterUnits="userSpaceOnUse" color-interpolation-filters="sRGB">
<feFlood flood-opacity="0" result="BackgroundImageFix"/>
<feColorMatrix in="SourceAlpha" type="matrix" values="0 0 0 0 0 0 0 0 0 0 0 0 0 0 0 0 0 0 127 0" result="hardAlpha"/>
<feOffset/>
<feGaussianBlur stdDeviation="12.5"/>
<feComposite in2="hardAlpha" operator="out"/>
<feColorMatrix type="matrix" values="0 0 0 0 0.941176 0 0 0 0 0.0196078 0 0 0 0 0 0 0 0 1 0"/>
<feBlend mode="normal" in2="BackgroundImageFix" result="effect1_dropShadow_1_267"/>
<feBlend mode="normal" in="SourceGraphic" in2="effect1_dropShadow_1_267" result="shape"/>
</filter>
<filter id="filter11_d_1_267" x="279.55" y="68.6451" width="65.6172" height="64.7128" filterUnits="userSpaceOnUse" color-interpolation-filters="sRGB">
<feFlood flood-opacity="0" result="BackgroundImageFix"/>
<feColorMatrix in="SourceAlpha" type="matrix" values="0 0 0 0 0 0 0 0 0 0 0 0 0 0 0 0 0 0 127 0" result="hardAlpha"/>
<feOffset/>
<feGaussianBlur stdDeviation="12.5"/>
<feComposite in2="hardAlpha" operator="out"/>
<feColorMatrix type="matrix" values="0 0 0 0 1 0 0 0 0 0.898039 0 0 0 0 0.45098 0 0 0 1 0"/>
<feBlend mode="normal" in2="BackgroundImageFix" result="effect1_dropShadow_1_267"/>
<feBlend mode="normal" in="SourceGraphic" in2="effect1_dropShadow_1_267" result="shape"/>
</filter>
<filter id="filter12_d_1_267" x="164.861" y="0.796509" width="65.761" height="66.7792" filterUnits="userSpaceOnUse" color-interpolation-filters="sRGB">
<feFlood flood-opacity="0" result="BackgroundImageFix"/>
<feColorMatrix in="SourceAlpha" type="matrix" values="0 0 0 0 0 0 0 0 0 0 0 0 0 0 0 0 0 0 127 0" result="hardAlpha"/>
<feOffset/>
<feGaussianBlur stdDeviation="12.5"/>
<feComposite in2="hardAlpha" operator="out"/>
<feColorMatrix type="matrix" values="0 0 0 0 0.837983 0 0 0 0 0.179137 0 0 0 0 0.970736 0 0 0 1 0"/>
<feBlend mode="normal" in2="BackgroundImageFix" result="effect1_dropShadow_1_267"/>
<feBlend mode="normal" in="SourceGraphic" in2="effect1_dropShadow_1_267" result="shape"/>
</filter>
<filter id="filter13_d_1_267" x="-12.161" y="107.879" width="62.8893" height="64.8262" filterUnits="userSpaceOnUse" color-interpolation-filters="sRGB">
<feFlood flood-opacity="0" result="BackgroundImageFix"/>
<feColorMatrix in="SourceAlpha" type="matrix" values="0 0 0 0 0 0 0 0 0 0 0 0 0 0 0 0 0 0 127 0" result="hardAlpha"/>
<feOffset/>
<feGaussianBlur stdDeviation="12.5"/>
<feComposite in2="hardAlpha" operator="out"/>
<feColorMatrix type="matrix" values="0 0 0 0 0.837983 0 0 0 0 0.179137 0 0 0 0 0.970736 0 0 0 1 0"/>
<feBlend mode="normal" in2="BackgroundImageFix" result="effect1_dropShadow_1_267"/>
<feBlend mode="normal" in="SourceGraphic" in2="effect1_dropShadow_1_267" result="shape"/>
</filter>
<linearGradient id="paint0_linear_1_267" x1="395.069" y1="113.793" x2="426.623" y2="175.305" gradientUnits="userSpaceOnUse">
<stop offset="0.265625" stop-color="#EC9D32"/>
<stop offset="0.671875" stop-color="#FFE573"/>
</linearGradient>
<linearGradient id="paint1_linear_1_267" x1="21.3241" y1="63.5582" x2="170.92" y2="172.979" gradientUnits="userSpaceOnUse">
<stop stop-color="#7B3FE5"/>
<stop offset="1" stop-color="#AD27C8"/>
</linearGradient>
<linearGradient id="paint2_linear_1_267" x1="-5.7166" y1="160.655" x2="160.286" y2="48.982" gradientUnits="userSpaceOnUse">
<stop stop-color="#8547F3"/>
<stop offset="1" stop-color="#D62EF8"/>
</linearGradient>
<linearGradient id="paint3_linear_1_267" x1="317.075" y1="191.098" x2="376.82" y2="307.568" gradientUnits="userSpaceOnUse">
<stop offset="0.265625" stop-color="#EC9D32"/>
<stop offset="0.671875" stop-color="#FFE573"/>
</linearGradient>
<linearGradient id="paint4_linear_1_267" x1="376.522" y1="265.925" x2="316.725" y2="284.536" gradientUnits="userSpaceOnUse">
<stop offset="0.0364583" stop-color="#EC9D32"/>
<stop offset="0.783338" stop-color="#FFB151"/>
</linearGradient>
<linearGradient id="paint5_linear_1_267" x1="411.468" y1="262.338" x2="290.651" y2="267.573" gradientUnits="userSpaceOnUse">
<stop stop-color="#FFE69C"/>
<stop offset="1" stop-color="white"/>
</linearGradient>
<linearGradient id="paint6_linear_1_267" x1="58.1322" y1="312.506" x2="53.5779" y2="333.964" gradientUnits="userSpaceOnUse">
<stop stop-color="#F00500"/>
<stop offset="1" stop-color="#EF6402"/>
</linearGradient>
<linearGradient id="paint7_linear_1_267" x1="51.5334" y1="343.77" x2="26.3985" y2="462.194" gradientUnits="userSpaceOnUse">
<stop stop-color="#F00500"/>
<stop offset="1" stop-color="#EF6402"/>
</linearGradient>
<linearGradient id="paint8_linear_1_267" x1="60.994" y1="205.26" x2="103.345" y2="198.016" gradientUnits="userSpaceOnUse">
<stop stop-color="#8547F3"/>
<stop offset="1" stop-color="#AD27C8"/>
</linearGradient>
<linearGradient id="paint9_linear_1_267" x1="60.994" y1="205.26" x2="92.8261" y2="220.695" gradientUnits="userSpaceOnUse">
<stop stop-color="#D62EF8"/>
<stop offset="1" stop-color="#8547F3"/>
</linearGradient>
<linearGradient id="paint10_linear_1_267" x1="241.382" y1="256.123" x2="248.611" y2="220.451" gradientUnits="userSpaceOnUse">
<stop stop-color="#FFE573"/>
<stop offset="1" stop-color="#EF6402"/>
</linearGradient>
<linearGradient id="paint11_linear_1_267" x1="241.382" y1="256.123" x2="258.875" y2="234.759" gradientUnits="userSpaceOnUse">
<stop stop-color="#FF8300"/>
<stop offset="1" stop-color="#FFE69C"/>
</linearGradient>
<linearGradient id="paint12_linear_1_267" x1="163.597" y1="379.968" x2="180.402" y2="347.672" gradientUnits="userSpaceOnUse">
<stop stop-color="#EF6402"/>
<stop offset="1" stop-color="#F00500"/>
</linearGradient>
<linearGradient id="paint13_linear_1_267" x1="163.597" y1="379.968" x2="186.325" y2="364.268" gradientUnits="userSpaceOnUse">
<stop stop-color="#F00500"/>
<stop offset="1" stop-color="#FF9300"/>
</linearGradient>
<linearGradient id="paint14_linear_1_267" x1="244.27" y1="455.042" x2="267.34" y2="451.562" gradientUnits="userSpaceOnUse">
<stop stop-color="#EF6402"/>
<stop offset="1" stop-color="#F00500"/>
</linearGradient>
<linearGradient id="paint15_linear_1_267" x1="244.27" y1="455.042" x2="260.521" y2="457.957" gradientUnits="userSpaceOnUse">
<stop stop-color="#F00500"/>
<stop offset="1" stop-color="#FF9300"/>
</linearGradient>
<linearGradient id="paint16_linear_1_267" x1="305.56" y1="100.017" x2="323.948" y2="93.1355" gradientUnits="userSpaceOnUse">
<stop stop-color="#FFE573"/>
<stop offset="1" stop-color="#EF6402"/>
</linearGradient>
<linearGradient id="paint17_linear_1_267" x1="305.56" y1="100.017" x2="319.915" y2="100.835" gradientUnits="userSpaceOnUse">
<stop stop-color="#FF8300"/>
<stop offset="1" stop-color="#FFE69C"/>
</linearGradient>
<linearGradient id="paint18_linear_1_267" x1="205.612" y1="39.0158" x2="183.903" y2="40.7238" gradientUnits="userSpaceOnUse">
<stop stop-color="#8547F3"/>
<stop offset="1" stop-color="#AD27C8"/>
</linearGradient>
<linearGradient id="paint19_linear_1_267" x1="205.612" y1="39.0158" x2="190.563" y2="33.7505" gradientUnits="userSpaceOnUse">
<stop stop-color="#D62EF8"/>
<stop offset="1" stop-color="#8547F3"/>
</linearGradient>
<linearGradient id="paint20_linear_1_267" x1="18.94" y1="134.18" x2="26.5351" y2="149.565" gradientUnits="userSpaceOnUse">
<stop stop-color="#8547F3"/>
<stop offset="1" stop-color="#AD27C8"/>
</linearGradient>
<linearGradient id="paint21_linear_1_267" x1="18.94" y1="134.18" x2="19.4997" y2="146.728" gradientUnits="userSpaceOnUse">
<stop stop-color="#D62EF8"/>
<stop offset="1" stop-color="#8547F3"/>
</linearGradient>
</defs>
</svg>
