<svg width="546" height="504" viewBox="0 0 546 504" fill="none" xmlns="http://www.w3.org/2000/svg">
<g filter="url(#filter0_d_21_254)">
<path d="M501.762 132.52L462.847 103.801L462.896 149.439L506 180.891L501.762 132.52Z" fill="url(#paint0_linear_21_254)"/>
<path d="M494.723 152.011L501.3 133.687L493.284 148.474L462.871 149.159L494.723 152.011Z" fill="#FFF0E8"/>
<path d="M463.201 104.615L492.955 147.94L501.507 132.824L463.201 104.615Z" fill="#FFE573"/>
<path d="M506 180.891L495.076 152.826L463.2 149.694L506 180.891Z" fill="url(#paint1_linear_21_254)"/>
<path d="M495.076 152.826L501.629 134.222L505.696 180.636L495.076 152.826Z" fill="url(#paint2_linear_21_254)"/>
</g>
<g filter="url(#filter1_d_21_254)">
<path d="M194.639 87.6675V103.166L210.348 95.7039L234.252 106.611V129.572L210.348 141.052L187.126 129.572V68.1504L147.512 49.2074L107.216 68.1504V106.611L147.512 126.128L163.221 118.665V103.166L147.512 110.629L124.291 99.1481V76.1869L147.512 65.2803L170.734 76.1869V137.034L210.348 157.125L250.644 137.034V99.1481L210.348 80.2051L194.639 87.6675Z" fill="url(#paint3_linear_21_254)"/>
<path d="M195.139 87.9835V102.375L210.133 95.2523L210.343 95.1524L210.555 95.2491L234.46 106.156L234.752 106.289V106.611V129.572V129.886L234.469 130.023L210.564 141.503L210.345 141.609L210.126 141.501L186.904 130.02L186.626 129.882V129.572V68.4656L147.511 49.7607L107.716 68.4679V106.297L147.515 125.573L162.721 118.349V103.957L147.727 111.08L147.508 111.184L147.291 111.077L124.069 99.5963L123.791 99.4587V99.1481V76.1869V75.8693L124.078 75.7343L147.3 64.8277L147.512 64.7279L147.725 64.8277L170.947 75.7343L171.234 75.8693V76.1869V136.727L210.35 156.566L250.144 136.725V99.4656L210.349 80.7581L195.139 87.9835Z" stroke="url(#paint4_linear_21_254)"/>
</g>
<g filter="url(#filter2_b_21_254)">
<path d="M439.611 168.724L270.932 84.5076L102.252 168.724L270.932 252.94L439.611 168.724Z" fill="white" fill-opacity="0.1"/>
</g>
<g filter="url(#filter3_b_21_254)">
<path d="M439.611 252.94L270.932 169.228L102.252 252.94L270.932 336.652L439.611 252.94Z" fill="white" fill-opacity="0.1"/>
</g>
<g filter="url(#filter4_b_21_254)">
<path d="M439.611 337.157L270.932 252.94L102.252 337.157L270.932 421.373L439.611 337.157Z" fill="white" fill-opacity="0.1"/>
</g>
<g filter="url(#filter5_d_21_254)">
<path d="M456.997 226.556L383.314 172.178L383.406 258.591L465.022 318.145L456.997 226.556Z" fill="url(#paint5_linear_21_254)"/>
<path d="M443.669 263.463L456.122 228.766L440.945 256.766L383.36 258.062L443.669 263.463Z" fill="#FFF0E8"/>
<path d="M383.984 173.72L440.323 255.753L456.514 227.132L383.984 173.72Z" fill="#FFE573"/>
<path d="M465.022 318.145L444.339 265.005L383.983 259.075L465.022 318.145Z" fill="url(#paint6_linear_21_254)"/>
<path d="M444.339 265.005L456.745 229.779L464.446 317.662L444.339 265.005Z" fill="url(#paint7_linear_21_254)"/>
</g>
<g filter="url(#filter6_d_21_254)">
<path d="M158.273 327.955C153.79 331.164 149.542 334.772 145.603 338.745L144.738 338.212C139.751 335.136 134.411 332.757 128.86 331.155C127.193 330.652 120.86 329.308 118.761 329.012C112.419 328.139 107.412 328.148 101.529 329.067C101.291 329.116 101.08 329.146 100.869 329.176C98.7747 323.947 96.271 318.931 93.343 314.199C113.564 307.902 134.957 311.172 152.171 323.172C154.017 324.436 155.79 325.833 157.503 327.293L158.273 327.955Z" fill="url(#paint8_linear_21_254)"/>
<path d="M172.717 425.523C168.153 433.499 162.35 440.564 155.546 446.345C151.86 449.45 147.935 452.179 143.836 454.548C134.271 459.943 123.788 463.025 113.186 463.565C101.462 464.141 89.8828 461.684 79.4068 456.396C69.9198 451.592 61.62 444.523 55.0792 435.71C52.3 431.881 49.8262 427.794 47.7231 423.46C36.6058 400.347 37.7532 372.087 50.7984 349.169C53.2476 344.93 56.0313 340.937 59.1393 337.236C60.5682 335.546 62.2873 333.669 63.0844 332.916C63.0782 343.205 63.8044 352.403 64.0973 355.729C63.9965 355.882 63.8689 356.054 63.7463 356.202C56.28 366.378 51.2288 376.642 48.1199 388.041C48.0894 388.184 48.0321 388.346 48.0017 388.489C47.0918 391.909 46.8287 393.572 46.8893 395.852C47.0755 402.992 50.5098 411.545 56.8258 420.559C67.1749 435.313 82.8267 447.704 95.8684 451.518C109.471 455.477 131.747 450.961 148.079 440.924C150.653 439.302 153.122 437.534 155.491 435.595C157.206 434.165 159.838 431.635 159.685 431.602C159.642 431.593 159.696 431.555 159.793 431.525C159.868 431.492 159.949 431.434 159.915 431.377C159.899 431.348 159.957 431.286 160.028 431.276C160.098 431.266 160.152 431.228 160.14 431.176C160.129 431.123 160.16 431.08 160.253 431.075C160.323 431.065 160.36 430.998 160.348 430.946C160.337 430.893 160.369 430.85 160.412 430.86C160.456 430.869 160.514 430.806 160.525 430.759C160.535 430.711 160.593 430.649 160.637 430.658C160.681 430.667 160.734 430.629 160.744 430.581C160.85 430.404 161 430.237 161.144 430.093C161.587 429.614 163.436 427.341 163.702 426.948C165.597 424.137 166.964 421.562 167.917 418.899C168.371 417.625 168.992 415.24 169.027 414.649C169.025 414.549 169.061 414.383 169.095 414.116C169.153 413.63 169.283 412.91 169.392 412.186C169.577 411.104 169.809 409.583 169.901 408.831C171.269 397.81 170.627 388.43 167.833 378.045C167.713 377.646 167.615 377.252 167.567 376.942C167.539 376.862 167.532 376.785 167.521 376.733C168.667 374.659 173.406 365.973 177.862 355.832L177.895 355.889L178.12 356.435C178.508 357.389 179.483 360.187 179.904 361.522C181.805 367.656 182.946 374.052 183.335 380.563C184.123 396.202 180.437 411.914 172.717 425.523Z" fill="url(#paint9_linear_21_254)"/>
<path d="M150.531 391.041C150.384 391.408 149.118 392.336 147.917 392.953C144.401 394.723 138.548 395.823 132.857 395.736C129.612 395.695 126.48 395.13 125.65 394.431C125.112 393.968 125.081 393.687 125.481 392.875C126.319 391.184 128.215 389.543 130.913 388.198C132.286 387.517 137.727 385.359 140.231 384.495C144.355 383.078 147.594 382.395 149.662 382.51C150.314 382.549 151.081 382.687 151.295 382.857C151.651 383.107 151.817 384.462 151.667 386.025C151.581 386.854 150.776 390.42 150.531 391.041Z" fill="black"/>
<path d="M97.573 388.048C97.3815 388.306 96.6626 388.477 95.8972 388.439C95.1318 388.402 92.8835 387.85 91.6349 387.41C87.1629 385.763 82.5956 383.175 79.4321 380.51C77.6581 379.012 76.45 377.635 75.6321 376.24L75.1699 375.42L75.2974 374.5C75.5235 372.903 76.073 370.429 76.4349 369.584C76.701 368.868 77.0926 368.204 77.5561 367.629C77.781 367.428 77.781 367.428 78.5645 367.594C79.5222 367.798 80.2919 368.135 81.5014 368.865C83.9857 370.339 87.5018 373.378 91.6754 377.602C95.1219 381.074 96.3497 382.68 97.1277 384.689C97.6778 385.952 97.8704 387.613 97.573 388.048Z" fill="black"/>
<path d="M121.328 427.771C121.313 427.843 120.808 428.932 120.193 430.221C119.577 431.511 119.082 432.552 119.072 432.599C118.828 432.572 118.605 432.55 118.371 432.475L117.674 432.328L116.189 434.603C115.377 435.851 114.63 437.013 114.524 437.19L114.322 437.496L114.038 436.588L113.753 435.681L115.159 429.078L114.974 429.089C114.584 429.105 111.869 428.928 110.69 428.802C105.812 428.315 101.049 427.18 96.4619 425.433C95.7255 425.153 95.0928 424.919 95.066 424.938C95.0392 424.957 94.7362 426.487 94.3788 428.38L93.7236 431.779L93.2216 432.32C92.9547 432.612 92.6979 432.857 92.6928 432.88C92.6123 432.938 92.4759 432.51 92.2087 431.308C91.9081 430.048 91.7752 428.749 91.7612 427.426L91.756 426.702L91.0711 426.606L90.3812 426.535L90.3948 425.616C90.4092 425.121 90.4577 424.358 90.5005 423.944L90.5976 423.167L90.1484 422.499C89.8878 422.12 89.6274 421.741 89.5722 421.679C89.4837 421.561 89.4757 421.384 89.5061 421.241L89.567 420.955L92.2825 421.557L94.9981 422.158L95.0192 422.486L95.0403 422.815L95.966 423.061C96.4833 423.196 98.1273 423.594 99.5971 423.956L102.302 424.605L103.253 423.561L104.225 422.522L105.139 422.716L105.645 420.232L106.151 417.748L105.075 416.922C101.619 414.245 99.8069 411.643 99.5061 408.888C99.4436 408.327 99.4842 408.136 99.9481 405.743C100.429 403.379 100.474 403.164 100.738 402.672C101.297 401.545 102.344 400.795 103.498 400.716C103.893 400.676 104.873 400.884 110.009 401.974L116.055 403.282L116.653 403.783C117.367 404.383 117.671 404.771 117.986 405.535C118.346 406.409 118.372 407.037 118.062 408.492C117.621 410.565 117.109 412.326 116.761 412.999C116.27 413.916 115.637 414.754 114.915 415.473C113.502 416.767 111.197 417.872 109.243 418.18L108.675 418.284L108.164 420.792L107.653 423.299L108.122 423.449L108.591 423.598L109.015 424.809L109.418 426.016L112.335 426.635C113.945 426.977 115.355 427.301 115.48 427.352C115.688 427.446 115.736 427.432 116.04 427.073L116.393 426.699L118.896 427.23C120.788 427.532 121.344 427.7 121.328 427.771Z" fill="black"/>
<path d="M108.38 432.174C107.911 432.348 107.603 432.407 107.547 432.346C107.487 432.308 107.243 431.957 106.973 431.626L106.497 430.977L105.735 431.562C104.073 432.854 104.014 432.916 103.617 432.857C102.992 432.799 102.887 432.652 102.406 431.279C102.146 430.576 101.953 429.987 101.953 429.987C101.953 429.987 101.68 429.88 101.359 429.786L100.765 429.586L100.345 430.169L99.9247 430.753L99.4596 430.48C99.0983 430.253 98.7421 430.003 98.4127 429.734L97.8359 429.238L98.1251 427.879L103.909 429.132L109.694 430.384L109.579 431.033C109.438 431.8 109.465 431.781 108.38 432.174Z" fill="black"/>
<path d="M168.983 414.64C168.982 414.54 169.017 414.373 169.051 414.106C163.96 412.378 149.132 408.832 132.625 418.409C132.625 418.409 132.934 395.054 112.039 390.62C91.145 386.185 78.6269 406.948 78.6269 406.948C69.8554 390.661 53.9716 388.336 48.1199 388.041C48.0895 388.184 48.0322 388.346 48.0017 388.489C47.0919 391.909 46.8288 393.572 46.8894 395.852C47.0755 402.992 50.5099 411.544 56.8259 420.559C67.1749 435.312 82.8268 447.704 95.8685 451.518C109.471 455.476 131.747 450.961 148.079 440.923C150.653 439.302 153.122 437.534 155.491 435.595C157.206 434.165 159.838 431.634 159.685 431.602C159.642 431.593 159.696 431.554 159.793 431.525C159.868 431.491 159.949 431.434 159.915 431.377C159.899 431.348 159.957 431.286 160.028 431.276C160.098 431.266 160.152 431.228 160.14 431.175C160.129 431.123 160.161 431.08 160.253 431.075C160.323 431.065 160.36 430.998 160.348 430.945C160.337 430.893 160.369 430.85 160.412 430.859C160.456 430.869 160.515 430.806 160.525 430.759C160.535 430.711 160.594 430.649 160.637 430.658C160.681 430.667 160.734 430.629 160.744 430.581C160.85 430.404 161 430.237 161.144 430.093C161.587 429.614 163.436 427.34 163.702 426.948C165.597 424.136 166.964 421.561 167.917 418.899C168.327 417.615 168.948 415.231 168.983 414.64ZM108.38 432.174C107.911 432.348 107.603 432.407 107.548 432.346C107.487 432.308 107.243 431.957 106.973 431.626L106.497 430.977L105.735 431.562C104.073 432.854 104.014 432.916 103.617 432.857C102.992 432.799 102.887 432.652 102.406 431.279C102.146 430.576 101.953 429.987 101.953 429.987C101.953 429.987 101.68 429.88 101.359 429.786L100.765 429.586L100.345 430.169L99.9248 430.753L99.4597 430.48C99.0984 430.253 98.7421 430.003 98.4127 429.734L97.8359 429.238L98.1251 427.879L103.91 429.132L109.694 430.385L109.579 431.033C109.438 431.8 109.465 431.781 108.38 432.174ZM120.176 430.193C119.56 431.482 119.066 432.523 119.056 432.571C118.811 432.544 118.588 432.521 118.354 432.447L117.658 432.299L116.189 434.603C115.377 435.851 114.63 437.013 114.524 437.19L114.322 437.496L114.038 436.588L113.753 435.681L115.159 429.078L114.974 429.089C114.584 429.105 111.869 428.928 110.69 428.802C105.812 428.315 101.049 427.179 96.4619 425.433C95.7255 425.153 95.0929 424.919 95.0661 424.938C95.0392 424.957 94.7363 426.487 94.3789 428.38L93.7236 431.779L93.2217 432.32C92.9548 432.612 92.698 432.856 92.6929 432.88C92.6124 432.938 92.4759 432.51 92.2088 431.308C91.9082 430.048 91.7753 428.749 91.7613 427.426L91.756 426.702L91.0712 426.606L90.3813 426.535L90.3949 425.616C90.4093 425.12 90.4578 424.358 90.5005 423.944L90.5976 423.167L90.1484 422.499C89.8879 422.12 89.6274 421.74 89.5723 421.679C89.4838 421.56 89.4757 421.384 89.5062 421.241L89.5671 420.955L92.2826 421.557L94.9981 422.158L95.0192 422.486L95.0403 422.815L95.9661 423.061C96.4834 423.196 98.1273 423.594 99.5972 423.956L102.303 424.605L103.253 423.561L104.225 422.522L105.139 422.716L105.645 420.232L106.151 417.748L105.075 416.922C101.619 414.245 99.807 411.643 99.5062 408.888C99.4437 408.327 99.4843 408.136 99.9482 405.743C100.429 403.379 100.474 403.164 100.738 402.672C101.297 401.545 102.344 400.795 103.498 400.716C103.893 400.676 104.873 400.883 110.009 401.974L116.055 403.282L116.653 403.782C117.367 404.382 117.671 404.771 117.986 405.535C118.346 406.409 118.372 407.037 118.062 408.491C117.621 410.565 117.11 412.325 116.761 412.999C116.27 413.916 115.637 414.754 114.916 415.472C113.503 416.767 111.197 417.872 109.244 418.18L108.675 418.284L108.164 420.792L107.653 423.299L108.122 423.448L108.591 423.598L109.015 424.809L109.418 426.016L112.335 426.635C113.945 426.977 115.355 427.301 115.48 427.352C115.688 427.446 115.737 427.432 116.04 427.072L116.393 426.699L118.896 427.23C120.833 427.641 121.394 427.785 121.379 427.857C121.318 427.819 120.787 428.927 120.176 430.193Z" fill="white"/>
<path d="M169.327 412.172C169.511 411.09 169.744 409.569 169.836 408.817C171.204 397.796 170.562 388.416 167.768 378.031C167.648 377.632 167.55 377.238 167.502 376.928C167.474 376.848 167.467 376.772 167.456 376.719C168.602 374.645 173.34 365.959 177.797 355.818C183.843 342.053 189.319 325.625 184.606 319.343C184.606 319.343 174.766 316.407 158.294 327.96C153.812 331.169 149.564 334.777 145.624 338.749L144.759 338.217C139.773 335.141 134.433 332.761 128.882 331.16C127.215 330.656 120.881 329.312 118.783 329.016C112.44 328.143 107.434 328.152 101.551 329.071C101.313 329.12 101.102 329.15 100.891 329.18C98.7965 323.952 96.2928 318.936 93.3647 314.204C82.4936 296.773 71.9341 295.404 71.9341 295.404C64.6852 299.321 63.0297 317.357 63.041 332.907C63.0347 343.195 63.761 352.393 64.0539 355.719C63.9531 355.872 63.8254 356.045 63.7029 356.193C56.2366 366.368 51.1853 376.632 48.0764 388.031C53.9499 388.331 69.817 390.628 78.6051 406.944C78.6051 406.944 91.1233 386.18 112.018 390.615C132.912 395.05 132.604 418.405 132.604 418.405C149.11 408.828 163.933 412.397 169.03 414.102C169.109 413.62 169.218 412.896 169.327 412.172ZM70.0805 347.606C70.0805 347.606 66.6849 323.589 71.4841 311.303C72.289 309.232 73.3428 307.487 74.6702 306.274C74.6702 306.274 83.6854 309.234 94.716 330.511C94.716 330.511 91.5669 331.412 87.0999 333.802C87.0999 333.802 87.073 333.822 87.0513 333.817C82.2019 336.4 75.7678 340.765 70.0805 347.606ZM97.573 388.048C97.3815 388.306 96.6626 388.477 95.8972 388.439C95.1319 388.402 92.8836 387.85 91.635 387.41C87.1629 385.763 82.5956 383.175 79.4321 380.51C77.6581 379.012 76.45 377.635 75.6321 376.24L75.1699 375.42L75.2974 374.5C75.5235 372.903 76.073 370.429 76.4349 369.584C76.701 368.868 77.0926 368.204 77.5561 367.629C77.781 367.428 77.781 367.428 78.5645 367.594C79.5222 367.798 80.2919 368.135 81.5014 368.865C83.9857 370.339 87.5018 373.378 91.6754 377.602C95.122 381.074 96.3497 382.68 97.1277 384.689C97.6779 385.952 97.8704 387.612 97.573 388.048ZM150.531 391.041C150.384 391.408 149.118 392.335 147.917 392.953C144.401 394.723 138.548 395.823 132.857 395.736C129.612 395.695 126.48 395.13 125.65 394.431C125.112 393.967 125.081 393.687 125.481 392.875C126.319 391.184 128.215 389.543 130.913 388.198C132.286 387.517 137.727 385.359 140.231 384.495C144.355 383.078 147.594 382.395 149.662 382.51C150.314 382.549 151.081 382.686 151.295 382.856C151.651 383.106 151.817 384.462 151.667 386.025C151.581 386.854 150.776 390.42 150.531 391.041ZM155.833 348.391L155.795 348.358C152.818 344.387 150.396 342.303 150.396 342.303C168.639 327.24 177.754 328.128 177.754 328.128C178.423 329.79 178.659 331.784 178.55 334.003C177.865 347.162 165.258 367.807 165.258 367.807C163.337 360.697 160.126 354.086 155.833 348.391Z" fill="#FFA409"/>
<path d="M178.572 334.008C176.925 333.409 168.904 331.657 155.833 348.391L155.795 348.358C152.818 344.387 150.396 342.304 150.396 342.304C168.639 327.24 177.754 328.128 177.754 328.128C178.445 329.795 178.681 331.788 178.572 334.008Z" fill="#FF9300"/>
<path d="M165.28 367.811C163.342 360.673 160.148 354.09 155.833 348.391C168.904 331.657 176.903 333.404 178.572 334.008C177.881 347.19 165.28 367.811 165.28 367.811Z" fill="#FF8300"/>
<path d="M178.883 334.148C178.779 334.101 178.676 334.055 178.572 334.008L178.883 334.148Z" fill="#FF8300"/>
<path d="M94.7212 330.487C94.7212 330.487 91.5721 331.388 87.105 333.779C87.105 333.779 87.0782 333.798 87.0564 333.793C81.6105 313.104 73.3029 311.415 71.4674 311.275C72.2724 309.204 73.3262 307.459 74.6536 306.246C74.6754 306.25 83.6905 309.21 94.7212 330.487Z" fill="#FF9300"/>
<path d="M87.078 333.798C82.2019 336.401 75.7728 340.742 70.0804 347.606C70.0804 347.606 66.6849 323.59 71.4891 311.28C73.3028 311.416 81.6271 313.133 87.078 333.798Z" fill="#FF8300"/>
<path d="M71.4886 311.28C71.3749 311.281 71.2394 311.277 71.1257 311.277L71.4886 311.28Z" fill="#FF8300"/>
<path d="M140.62 375.508C140.62 375.508 133.554 374.507 135.693 368.732C137.832 362.957 143.426 363.397 144.899 363.959C146.371 364.521 151.958 368.198 149.804 372.973C147.65 377.748 146.33 376.471 145.408 376.525C144.487 376.578 140.62 375.508 140.62 375.508Z" fill="white"/>
<path d="M89.2553 364.606C89.2553 364.606 82.189 363.605 84.3282 357.83C86.4674 352.055 92.0608 352.495 93.5336 353.057C95.0064 353.619 100.593 357.296 98.4393 362.071C96.2854 366.846 94.9649 365.569 94.0435 365.623C93.1222 365.676 89.2553 364.606 89.2553 364.606Z" fill="white"/>
</g>
<g filter="url(#filter7_d_21_254)">
<path d="M158.068 229.477L132.395 201.34L161.843 209.53L158.068 229.477Z" fill="url(#paint10_linear_21_254)"/>
<path d="M158.068 229.477L132.395 201.34L161.843 209.53L158.068 229.477Z" stroke="url(#paint11_linear_21_254)"/>
</g>
<g filter="url(#filter8_d_21_254)">
<path d="M336.405 241.333L307.327 253.213L317.778 231.435L336.405 241.333Z" fill="url(#paint12_linear_21_254)"/>
<path d="M336.405 241.333L307.327 253.213L317.778 231.435L336.405 241.333Z" stroke="url(#paint13_linear_21_254)"/>
</g>
<g filter="url(#filter9_d_21_254)">
<path d="M261.72 372.802L230.487 376.189L246.561 358.147L261.72 372.802Z" fill="url(#paint14_linear_21_254)"/>
<path d="M261.72 372.802L230.487 376.189L246.561 358.147L261.72 372.802Z" stroke="url(#paint15_linear_21_254)"/>
</g>
<g filter="url(#filter10_d_21_254)">
<path d="M328.322 467.431L314.525 450.828L329.285 448.031L328.322 467.431Z" fill="url(#paint16_linear_21_254)"/>
<path d="M328.322 467.431L314.525 450.828L329.285 448.031L328.322 467.431Z" stroke="url(#paint17_linear_21_254)"/>
</g>
<g filter="url(#filter11_d_21_254)">
<path d="M389.048 107.284L375.224 97.1498L387.63 94.2601L389.048 107.284Z" fill="url(#paint18_linear_21_254)"/>
<path d="M389.048 107.284L375.224 97.1498L387.63 94.2601L389.048 107.284Z" stroke="url(#paint19_linear_21_254)"/>
</g>
<g filter="url(#filter12_d_21_254)">
<path d="M262.425 27L274.06 42.0222L259.95 41.3163L262.425 27Z" fill="url(#paint20_linear_21_254)"/>
<path d="M262.425 27L274.06 42.0222L259.95 41.3163L262.425 27Z" stroke="url(#paint21_linear_21_254)"/>
</g>
<g filter="url(#filter13_d_21_254)">
<path d="M83.3467 146.98L90.9531 134.068L94.5718 144.593L83.3467 146.98Z" fill="url(#paint22_linear_21_254)"/>
<path d="M83.3467 146.98L90.9531 134.068L94.5718 144.593L83.3467 146.98Z" stroke="url(#paint23_linear_21_254)"/>
</g>
<defs>
<filter id="filter0_d_21_254" x="402.847" y="63.8005" width="143.153" height="177.091" filterUnits="userSpaceOnUse" color-interpolation-filters="sRGB">
<feFlood flood-opacity="0" result="BackgroundImageFix"/>
<feColorMatrix in="SourceAlpha" type="matrix" values="0 0 0 0 0 0 0 0 0 0 0 0 0 0 0 0 0 0 127 0" result="hardAlpha"/>
<feOffset dx="-10" dy="10"/>
<feGaussianBlur stdDeviation="25"/>
<feComposite in2="hardAlpha" operator="out"/>
<feColorMatrix type="matrix" values="0 0 0 0 1 0 0 0 0 0.898039 0 0 0 0 0.45098 0 0 0 0.5 0"/>
<feBlend mode="normal" in2="BackgroundImageFix" result="effect1_dropShadow_21_254"/>
<feBlend mode="normal" in="SourceGraphic" in2="effect1_dropShadow_21_254" result="shape"/>
</filter>
<filter id="filter1_d_21_254" x="67.2159" y="9.2074" width="243.428" height="207.918" filterUnits="userSpaceOnUse" color-interpolation-filters="sRGB">
<feFlood flood-opacity="0" result="BackgroundImageFix"/>
<feColorMatrix in="SourceAlpha" type="matrix" values="0 0 0 0 0 0 0 0 0 0 0 0 0 0 0 0 0 0 127 0" result="hardAlpha"/>
<feOffset dx="10" dy="10"/>
<feGaussianBlur stdDeviation="25"/>
<feComposite in2="hardAlpha" operator="out"/>
<feColorMatrix type="matrix" values="0 0 0 0 0.837983 0 0 0 0 0.179137 0 0 0 0 0.970736 0 0 0 0.5 0"/>
<feBlend mode="normal" in2="BackgroundImageFix" result="effect1_dropShadow_21_254"/>
<feBlend mode="normal" in="SourceGraphic" in2="effect1_dropShadow_21_254" result="shape"/>
</filter>
<filter id="filter2_b_21_254" x="77.2518" y="59.5076" width="387.36" height="218.433" filterUnits="userSpaceOnUse" color-interpolation-filters="sRGB">
<feFlood flood-opacity="0" result="BackgroundImageFix"/>
<feGaussianBlur in="BackgroundImageFix" stdDeviation="12.5"/>
<feComposite in2="SourceAlpha" operator="in" result="effect1_backgroundBlur_21_254"/>
<feBlend mode="normal" in="SourceGraphic" in2="effect1_backgroundBlur_21_254" result="shape"/>
</filter>
<filter id="filter3_b_21_254" x="77.2518" y="144.228" width="387.36" height="217.424" filterUnits="userSpaceOnUse" color-interpolation-filters="sRGB">
<feFlood flood-opacity="0" result="BackgroundImageFix"/>
<feGaussianBlur in="BackgroundImageFix" stdDeviation="12.5"/>
<feComposite in2="SourceAlpha" operator="in" result="effect1_backgroundBlur_21_254"/>
<feBlend mode="normal" in="SourceGraphic" in2="effect1_backgroundBlur_21_254" result="shape"/>
</filter>
<filter id="filter4_b_21_254" x="77.2518" y="227.94" width="387.36" height="218.433" filterUnits="userSpaceOnUse" color-interpolation-filters="sRGB">
<feFlood flood-opacity="0" result="BackgroundImageFix"/>
<feGaussianBlur in="BackgroundImageFix" stdDeviation="12.5"/>
<feComposite in2="SourceAlpha" operator="in" result="effect1_backgroundBlur_21_254"/>
<feBlend mode="normal" in="SourceGraphic" in2="effect1_backgroundBlur_21_254" result="shape"/>
</filter>
<filter id="filter5_d_21_254" x="323.314" y="132.177" width="181.708" height="245.968" filterUnits="userSpaceOnUse" color-interpolation-filters="sRGB">
<feFlood flood-opacity="0" result="BackgroundImageFix"/>
<feColorMatrix in="SourceAlpha" type="matrix" values="0 0 0 0 0 0 0 0 0 0 0 0 0 0 0 0 0 0 127 0" result="hardAlpha"/>
<feOffset dx="-10" dy="10"/>
<feGaussianBlur stdDeviation="25"/>
<feComposite in2="hardAlpha" operator="out"/>
<feColorMatrix type="matrix" values="0 0 0 0 1 0 0 0 0 0.898039 0 0 0 0 0.45098 0 0 0 0.5 0"/>
<feBlend mode="normal" in2="BackgroundImageFix" result="effect1_dropShadow_21_254"/>
<feBlend mode="normal" in="SourceGraphic" in2="effect1_dropShadow_21_254" result="shape"/>
</filter>
<filter id="filter6_d_21_254" x="0.13063" y="235.404" width="246.255" height="268.244" filterUnits="userSpaceOnUse" color-interpolation-filters="sRGB">
<feFlood flood-opacity="0" result="BackgroundImageFix"/>
<feColorMatrix in="SourceAlpha" type="matrix" values="0 0 0 0 0 0 0 0 0 0 0 0 0 0 0 0 0 0 127 0" result="hardAlpha"/>
<feOffset dx="10" dy="-10"/>
<feGaussianBlur stdDeviation="25"/>
<feComposite in2="hardAlpha" operator="out"/>
<feColorMatrix type="matrix" values="0 0 0 0 0.941176 0 0 0 0 0.0196078 0 0 0 0 0 0 0 0 0.5 0"/>
<feBlend mode="normal" in2="BackgroundImageFix" result="effect1_dropShadow_21_254"/>
<feBlend mode="normal" in="SourceGraphic" in2="effect1_dropShadow_21_254" result="shape"/>
</filter>
<filter id="filter7_d_21_254" x="105.853" y="175.393" width="81.5667" height="80.1615" filterUnits="userSpaceOnUse" color-interpolation-filters="sRGB">
<feFlood flood-opacity="0" result="BackgroundImageFix"/>
<feColorMatrix in="SourceAlpha" type="matrix" values="0 0 0 0 0 0 0 0 0 0 0 0 0 0 0 0 0 0 127 0" result="hardAlpha"/>
<feOffset/>
<feGaussianBlur stdDeviation="12.5"/>
<feComposite in2="hardAlpha" operator="out"/>
<feColorMatrix type="matrix" values="0 0 0 0 0.837983 0 0 0 0 0.179137 0 0 0 0 0.970736 0 0 0 1 0"/>
<feBlend mode="normal" in2="BackgroundImageFix" result="effect1_dropShadow_21_254"/>
<feBlend mode="normal" in="SourceGraphic" in2="effect1_dropShadow_21_254" result="shape"/>
</filter>
<filter id="filter8_d_21_254" x="281.315" y="205.749" width="81.2667" height="73.4166" filterUnits="userSpaceOnUse" color-interpolation-filters="sRGB">
<feFlood flood-opacity="0" result="BackgroundImageFix"/>
<feColorMatrix in="SourceAlpha" type="matrix" values="0 0 0 0 0 0 0 0 0 0 0 0 0 0 0 0 0 0 127 0" result="hardAlpha"/>
<feOffset/>
<feGaussianBlur stdDeviation="12.5"/>
<feComposite in2="hardAlpha" operator="out"/>
<feColorMatrix type="matrix" values="0 0 0 0 1 0 0 0 0 0.898039 0 0 0 0 0.45098 0 0 0 1 0"/>
<feBlend mode="normal" in2="BackgroundImageFix" result="effect1_dropShadow_21_254"/>
<feBlend mode="normal" in="SourceGraphic" in2="effect1_dropShadow_21_254" result="shape"/>
</filter>
<filter id="filter9_d_21_254" x="204.249" y="332.426" width="83.5851" height="69.4006" filterUnits="userSpaceOnUse" color-interpolation-filters="sRGB">
<feFlood flood-opacity="0" result="BackgroundImageFix"/>
<feColorMatrix in="SourceAlpha" type="matrix" values="0 0 0 0 0 0 0 0 0 0 0 0 0 0 0 0 0 0 127 0" result="hardAlpha"/>
<feOffset/>
<feGaussianBlur stdDeviation="12.5"/>
<feComposite in2="hardAlpha" operator="out"/>
<feColorMatrix type="matrix" values="0 0 0 0 0.941176 0 0 0 0 0.0196078 0 0 0 0 0 0 0 0 1 0"/>
<feBlend mode="normal" in2="BackgroundImageFix" result="effect1_dropShadow_21_254"/>
<feBlend mode="normal" in="SourceGraphic" in2="effect1_dropShadow_21_254" result="shape"/>
</filter>
<filter id="filter10_d_21_254" x="288.598" y="422.421" width="66.2178" height="71.317" filterUnits="userSpaceOnUse" color-interpolation-filters="sRGB">
<feFlood flood-opacity="0" result="BackgroundImageFix"/>
<feColorMatrix in="SourceAlpha" type="matrix" values="0 0 0 0 0 0 0 0 0 0 0 0 0 0 0 0 0 0 127 0" result="hardAlpha"/>
<feOffset/>
<feGaussianBlur stdDeviation="12.5"/>
<feComposite in2="hardAlpha" operator="out"/>
<feColorMatrix type="matrix" values="0 0 0 0 0.941176 0 0 0 0 0.0196078 0 0 0 0 0 0 0 0 1 0"/>
<feBlend mode="normal" in2="BackgroundImageFix" result="effect1_dropShadow_21_254"/>
<feBlend mode="normal" in="SourceGraphic" in2="effect1_dropShadow_21_254" result="shape"/>
</filter>
<filter id="filter11_d_21_254" x="349.05" y="68.6452" width="65.6172" height="64.7128" filterUnits="userSpaceOnUse" color-interpolation-filters="sRGB">
<feFlood flood-opacity="0" result="BackgroundImageFix"/>
<feColorMatrix in="SourceAlpha" type="matrix" values="0 0 0 0 0 0 0 0 0 0 0 0 0 0 0 0 0 0 127 0" result="hardAlpha"/>
<feOffset/>
<feGaussianBlur stdDeviation="12.5"/>
<feComposite in2="hardAlpha" operator="out"/>
<feColorMatrix type="matrix" values="0 0 0 0 1 0 0 0 0 0.898039 0 0 0 0 0.45098 0 0 0 1 0"/>
<feBlend mode="normal" in2="BackgroundImageFix" result="effect1_dropShadow_21_254"/>
<feBlend mode="normal" in="SourceGraphic" in2="effect1_dropShadow_21_254" result="shape"/>
</filter>
<filter id="filter12_d_21_254" x="234.361" y="0.79657" width="65.761" height="66.7792" filterUnits="userSpaceOnUse" color-interpolation-filters="sRGB">
<feFlood flood-opacity="0" result="BackgroundImageFix"/>
<feColorMatrix in="SourceAlpha" type="matrix" values="0 0 0 0 0 0 0 0 0 0 0 0 0 0 0 0 0 0 127 0" result="hardAlpha"/>
<feOffset/>
<feGaussianBlur stdDeviation="12.5"/>
<feComposite in2="hardAlpha" operator="out"/>
<feColorMatrix type="matrix" values="0 0 0 0 0.837983 0 0 0 0 0.179137 0 0 0 0 0.970736 0 0 0 1 0"/>
<feBlend mode="normal" in2="BackgroundImageFix" result="effect1_dropShadow_21_254"/>
<feBlend mode="normal" in="SourceGraphic" in2="effect1_dropShadow_21_254" result="shape"/>
</filter>
<filter id="filter13_d_21_254" x="57.3389" y="107.879" width="62.8894" height="64.8262" filterUnits="userSpaceOnUse" color-interpolation-filters="sRGB">
<feFlood flood-opacity="0" result="BackgroundImageFix"/>
<feColorMatrix in="SourceAlpha" type="matrix" values="0 0 0 0 0 0 0 0 0 0 0 0 0 0 0 0 0 0 127 0" result="hardAlpha"/>
<feOffset/>
<feGaussianBlur stdDeviation="12.5"/>
<feComposite in2="hardAlpha" operator="out"/>
<feColorMatrix type="matrix" values="0 0 0 0 0.837983 0 0 0 0 0.179137 0 0 0 0 0.970736 0 0 0 1 0"/>
<feBlend mode="normal" in2="BackgroundImageFix" result="effect1_dropShadow_21_254"/>
<feBlend mode="normal" in="SourceGraphic" in2="effect1_dropShadow_21_254" result="shape"/>
</filter>
<linearGradient id="paint0_linear_21_254" x1="464.569" y1="113.793" x2="496.123" y2="175.305" gradientUnits="userSpaceOnUse">
<stop offset="0.265625" stop-color="#EC9D32"/>
<stop offset="0.671875" stop-color="#FFE573"/>
</linearGradient>
<linearGradient id="paint1_linear_21_254" x1="495.965" y1="153.312" x2="464.384" y2="163.141" gradientUnits="userSpaceOnUse">
<stop offset="0.0364583" stop-color="#EC9D32"/>
<stop offset="0.783338" stop-color="#FFB151"/>
</linearGradient>
<linearGradient id="paint2_linear_21_254" x1="514.422" y1="151.418" x2="450.614" y2="154.183" gradientUnits="userSpaceOnUse">
<stop stop-color="#FFE69C"/>
<stop offset="1" stop-color="white"/>
</linearGradient>
<linearGradient id="paint3_linear_21_254" x1="90.8241" y1="63.5582" x2="240.42" y2="172.979" gradientUnits="userSpaceOnUse">
<stop stop-color="#7B3FE5"/>
<stop offset="1" stop-color="#AD27C8"/>
</linearGradient>
<linearGradient id="paint4_linear_21_254" x1="63.7834" y1="160.655" x2="229.786" y2="48.982" gradientUnits="userSpaceOnUse">
<stop stop-color="#8547F3"/>
<stop offset="1" stop-color="#D62EF8"/>
</linearGradient>
<linearGradient id="paint5_linear_21_254" x1="386.575" y1="191.098" x2="446.32" y2="307.568" gradientUnits="userSpaceOnUse">
<stop offset="0.265625" stop-color="#EC9D32"/>
<stop offset="0.671875" stop-color="#FFE573"/>
</linearGradient>
<linearGradient id="paint6_linear_21_254" x1="446.022" y1="265.925" x2="386.225" y2="284.536" gradientUnits="userSpaceOnUse">
<stop offset="0.0364583" stop-color="#EC9D32"/>
<stop offset="0.783338" stop-color="#FFB151"/>
</linearGradient>
<linearGradient id="paint7_linear_21_254" x1="480.968" y1="262.338" x2="360.151" y2="267.573" gradientUnits="userSpaceOnUse">
<stop stop-color="#FFE69C"/>
<stop offset="1" stop-color="white"/>
</linearGradient>
<linearGradient id="paint8_linear_21_254" x1="127.632" y1="312.506" x2="123.078" y2="333.964" gradientUnits="userSpaceOnUse">
<stop stop-color="#F00500"/>
<stop offset="1" stop-color="#EF6402"/>
</linearGradient>
<linearGradient id="paint9_linear_21_254" x1="121.033" y1="343.77" x2="95.8985" y2="462.194" gradientUnits="userSpaceOnUse">
<stop stop-color="#F00500"/>
<stop offset="1" stop-color="#EF6402"/>
</linearGradient>
<linearGradient id="paint10_linear_21_254" x1="130.494" y1="205.26" x2="172.845" y2="198.016" gradientUnits="userSpaceOnUse">
<stop stop-color="#8547F3"/>
<stop offset="1" stop-color="#AD27C8"/>
</linearGradient>
<linearGradient id="paint11_linear_21_254" x1="130.494" y1="205.26" x2="162.326" y2="220.695" gradientUnits="userSpaceOnUse">
<stop stop-color="#D62EF8"/>
<stop offset="1" stop-color="#8547F3"/>
</linearGradient>
<linearGradient id="paint12_linear_21_254" x1="310.882" y1="256.123" x2="318.111" y2="220.451" gradientUnits="userSpaceOnUse">
<stop stop-color="#FFE573"/>
<stop offset="1" stop-color="#EF6402"/>
</linearGradient>
<linearGradient id="paint13_linear_21_254" x1="310.882" y1="256.123" x2="328.375" y2="234.759" gradientUnits="userSpaceOnUse">
<stop stop-color="#FF8300"/>
<stop offset="1" stop-color="#FFE69C"/>
</linearGradient>
<linearGradient id="paint14_linear_21_254" x1="233.097" y1="379.968" x2="249.902" y2="347.672" gradientUnits="userSpaceOnUse">
<stop stop-color="#EF6402"/>
<stop offset="1" stop-color="#F00500"/>
</linearGradient>
<linearGradient id="paint15_linear_21_254" x1="233.097" y1="379.968" x2="255.825" y2="364.268" gradientUnits="userSpaceOnUse">
<stop stop-color="#F00500"/>
<stop offset="1" stop-color="#FF9300"/>
</linearGradient>
<linearGradient id="paint16_linear_21_254" x1="313.77" y1="455.042" x2="336.84" y2="451.562" gradientUnits="userSpaceOnUse">
<stop stop-color="#EF6402"/>
<stop offset="1" stop-color="#F00500"/>
</linearGradient>
<linearGradient id="paint17_linear_21_254" x1="313.77" y1="455.042" x2="330.021" y2="457.957" gradientUnits="userSpaceOnUse">
<stop stop-color="#F00500"/>
<stop offset="1" stop-color="#FF9300"/>
</linearGradient>
<linearGradient id="paint18_linear_21_254" x1="375.06" y1="100.017" x2="393.448" y2="93.1356" gradientUnits="userSpaceOnUse">
<stop stop-color="#FFE573"/>
<stop offset="1" stop-color="#EF6402"/>
</linearGradient>
<linearGradient id="paint19_linear_21_254" x1="375.06" y1="100.017" x2="389.415" y2="100.835" gradientUnits="userSpaceOnUse">
<stop stop-color="#FF8300"/>
<stop offset="1" stop-color="#FFE69C"/>
</linearGradient>
<linearGradient id="paint20_linear_21_254" x1="275.112" y1="39.0158" x2="253.403" y2="40.7239" gradientUnits="userSpaceOnUse">
<stop stop-color="#8547F3"/>
<stop offset="1" stop-color="#AD27C8"/>
</linearGradient>
<linearGradient id="paint21_linear_21_254" x1="275.112" y1="39.0158" x2="260.063" y2="33.7506" gradientUnits="userSpaceOnUse">
<stop stop-color="#D62EF8"/>
<stop offset="1" stop-color="#8547F3"/>
</linearGradient>
<linearGradient id="paint22_linear_21_254" x1="88.4399" y1="134.18" x2="96.0351" y2="149.565" gradientUnits="userSpaceOnUse">
<stop stop-color="#8547F3"/>
<stop offset="1" stop-color="#AD27C8"/>
</linearGradient>
<linearGradient id="paint23_linear_21_254" x1="88.4399" y1="134.18" x2="88.9997" y2="146.728" gradientUnits="userSpaceOnUse">
<stop stop-color="#D62EF8"/>
<stop offset="1" stop-color="#8547F3"/>
</linearGradient>
</defs>
</svg>
