<svg width="101" height="13" viewBox="0 0 101 13" fill="none" xmlns="http://www.w3.org/2000/svg">
<path d="M88.3132 12.6523V0.97229H93.1932L97.0812 10.2843H97.6412L97.3212 10.5723V0.97229H100.105V12.6523H95.1932L91.3052 3.34029H90.7452L91.0652 3.05229V12.6523H88.3132Z" fill="white"/>
<path d="M82.459 12.6523V0.97229H85.435V12.6523H82.459Z" fill="white"/>
<path d="M68.2502 12.6523L71.9942 0.97229H76.7622L80.6342 12.6523H77.5622L74.5542 3.05229L75.4022 3.37229H73.2902L74.1542 3.05229L71.2262 12.6523H68.2502ZM71.3062 9.94829L72.2022 7.51629H76.6342L77.5302 9.94829H71.3062Z" fill="white"/>
<path d="M63.4848 12.6523V0.97229H66.4608V12.6523H63.4848ZM56.0608 12.6523V0.97229H59.0368V12.6523H56.0608ZM58.5248 8.06029V5.46829H63.9968V8.06029H58.5248Z" fill="white"/>
<path d="M48.2086 12.9723C47.1526 12.9723 46.246 12.791 45.4886 12.4283C44.7313 12.055 44.1073 11.5696 43.6166 10.9723C43.126 10.3643 42.7633 9.7083 42.5286 9.0043C42.294 8.3003 42.1766 7.61763 42.1766 6.9563V6.6043C42.1766 5.8683 42.294 5.1483 42.5286 4.4443C42.774 3.72963 43.142 3.0843 43.6326 2.5083C44.134 1.9323 44.758 1.47363 45.5046 1.1323C46.2513 0.790967 47.126 0.6203 48.1286 0.6203C49.1953 0.6203 50.1393 0.822967 50.9606 1.2283C51.7926 1.62297 52.4593 2.18297 52.9606 2.9083C53.462 3.62297 53.7553 4.45497 53.8406 5.4043H50.8646C50.79 4.99897 50.63 4.64697 50.3846 4.3483C50.1393 4.04963 49.8246 3.8203 49.4406 3.6603C49.0566 3.48963 48.6193 3.4043 48.1286 3.4043C47.67 3.4043 47.254 3.4843 46.8806 3.6443C46.518 3.8043 46.2086 4.03363 45.9526 4.3323C45.7073 4.6203 45.5153 4.9723 45.3766 5.3883C45.2486 5.8043 45.1846 6.27363 45.1846 6.7963C45.1846 7.31897 45.2486 7.7883 45.3766 8.2043C45.5153 8.6203 45.7126 8.97763 45.9686 9.2763C46.2353 9.57497 46.5553 9.8043 46.9286 9.9643C47.302 10.1136 47.7286 10.1883 48.2086 10.1883C48.9553 10.1883 49.5846 10.007 50.0966 9.6443C50.6193 9.28163 50.934 8.7963 51.0406 8.1883H54.0166C53.9206 9.06297 53.6273 9.86297 53.1366 10.5883C52.646 11.3136 51.9846 11.895 51.1526 12.3323C50.3206 12.759 49.3393 12.9723 48.2086 12.9723Z" fill="white"/>
<path d="M33.7545 12.7483V10.4763H36.3305C36.7678 10.4763 37.0931 10.3643 37.3065 10.1403C37.5198 9.91631 37.6265 9.59098 37.6265 9.16431C37.6265 8.73765 37.5198 8.41765 37.3065 8.20431C37.0931 7.98031 36.7678 7.86831 36.3305 7.86831H33.7545V6.10831H36.2345C37.0558 6.10831 37.7918 6.20965 38.4425 6.41231C39.0931 6.60431 39.6051 6.92431 39.9785 7.37231C40.3518 7.82031 40.5385 8.41765 40.5385 9.16431V9.38831C40.5385 10.0923 40.3731 10.695 40.0425 11.1963C39.7118 11.6976 39.2265 12.0816 38.5865 12.3483C37.9465 12.615 37.1625 12.7483 36.2345 12.7483H33.7545ZM31.1945 12.7483V0.876312H34.0745V12.7483H31.1945ZM33.7545 7.42031V5.66031H35.8985C36.3358 5.66031 36.6505 5.55365 36.8425 5.34031C37.0451 5.11631 37.1465 4.80698 37.1465 4.41231C37.1465 4.00698 37.0451 3.69765 36.8425 3.48431C36.6505 3.26031 36.3358 3.14831 35.8985 3.14831H33.7545V0.876312H35.7705C37.1358 0.876312 38.1918 1.16431 38.9385 1.74031C39.6851 2.30565 40.0585 3.11631 40.0585 4.17231V4.41231C40.0585 5.14831 39.8665 5.74031 39.4825 6.18831C39.1091 6.62565 38.5971 6.94031 37.9465 7.13231C37.3065 7.32431 36.5811 7.42031 35.7705 7.42031H33.7545Z" fill="white"/>
<path d="M25.3402 12.6523V0.97229H28.3162V12.6523H25.3402Z" fill="white"/>
<path d="M19.4866 12.6523V0.97229H22.4626V12.6523H19.4866ZM12.0626 12.6523V0.97229H15.0386V12.6523H12.0626ZM14.5266 8.06029V5.46829H19.9986V8.06029H14.5266Z" fill="white"/>
<path d="M5.19574 12.9723C4.10774 12.9723 3.1904 12.8016 2.44374 12.4603C1.70774 12.119 1.14774 11.655 0.763735 11.0683C0.390402 10.471 0.203735 9.7883 0.203735 9.0203H3.08374C3.08374 9.29763 3.1584 9.55363 3.30774 9.7883C3.46774 10.0123 3.7024 10.1883 4.01174 10.3163C4.32107 10.4443 4.71574 10.5083 5.19574 10.5083C5.61174 10.5083 5.96374 10.455 6.25174 10.3483C6.5504 10.2416 6.7744 10.0923 6.92374 9.9003C7.08374 9.7083 7.16374 9.47897 7.16374 9.2123C7.16374 8.87097 7.01974 8.60963 6.73174 8.4283C6.44374 8.2363 5.9584 8.11363 5.27574 8.0603L4.52374 7.9963C3.3184 7.88963 2.3584 7.51097 1.64374 6.8603C0.929069 6.20963 0.571735 5.34563 0.571735 4.2683C0.571735 3.5003 0.747735 2.8443 1.09974 2.3003C1.4624 1.7563 1.96907 1.3403 2.61974 1.0523C3.2704 0.7643 4.0384 0.6203 4.92374 0.6203C5.88374 0.6203 6.6944 0.7803 7.35574 1.1003C8.02774 1.4203 8.53973 1.87363 8.89174 2.4603C9.24374 3.0363 9.41974 3.7083 9.41974 4.4763H6.53974C6.53974 4.2203 6.47574 3.98563 6.34774 3.7723C6.21974 3.55897 6.03307 3.39363 5.78774 3.2763C5.55307 3.1483 5.26507 3.0843 4.92374 3.0843C4.60373 3.0843 4.33174 3.13763 4.10774 3.2443C3.8944 3.3403 3.72907 3.47897 3.61174 3.6603C3.50507 3.84163 3.45174 4.0443 3.45174 4.2683C3.45174 4.56697 3.55307 4.82297 3.75574 5.0363C3.9584 5.24963 4.3104 5.37763 4.81174 5.4203L5.56374 5.4843C6.4384 5.55897 7.21174 5.75097 7.88374 6.0603C8.55574 6.35897 9.08374 6.76963 9.46774 7.2923C9.85174 7.81497 10.0437 8.45497 10.0437 9.2123C10.0437 9.96963 9.8464 10.631 9.45174 11.1963C9.06774 11.7616 8.51307 12.199 7.78774 12.5083C7.07307 12.8176 6.20907 12.9723 5.19574 12.9723Z" fill="white"/>
</svg>
